<?xml version="1.0" encoding="UTF-8"?>
<svg version="1.1" xmlns="http://www.w3.org/2000/svg" width="512" height="512">
<path d="M0 0 C0.82971817 -0.00761353 1.65943634 -0.01522705 2.51429749 -0.02307129 C4.26853426 -0.033873 6.02283535 -0.03672509 7.77709961 -0.03222656 C10.45991409 -0.03125462 13.13986458 -0.0728625 15.82226562 -0.1171875 C17.52733779 -0.1223949 19.23241989 -0.12508269 20.9375 -0.125 C21.73864731 -0.14139526 22.53979462 -0.15779053 23.36521912 -0.17468262 C27.28915262 -0.12604958 29.11341607 0.0704283 32.01489258 2.81079102 C33.72867891 5.80709611 34.45041187 8.56333499 35.28515625 11.90625 C36.87702137 16.41803392 36.87702137 16.41803392 40.27636719 19.61914062 C43.72180658 21.24500391 47.26179379 22.36851112 50.91796875 23.41796875 C54.53515625 24.46875 54.53515625 24.46875 57.53515625 26.46875 C61.75117448 26.22074893 65.1943883 24.24648646 68.86328125 22.30859375 C73.07331026 20.98526592 76.20159702 20.16729379 80.53515625 21.46875 C85.01907389 24.80569894 88.72889805 28.7699861 92.53515625 32.84375 C93.59168796 33.93689259 94.65026596 35.02806131 95.7109375 36.1171875 C104.91803172 45.64177405 104.91803172 45.64177405 104.90625 51.2734375 C104.26218839 55.08357037 102.34185534 58.34187826 100.53125 61.72265625 C98.596129 67.05751925 100.80819436 71.55362992 102.97265625 76.53125 C103.40449219 77.53285156 103.83632813 78.53445312 104.28125 79.56640625 C104.69503906 80.52417969 105.10882813 81.48195313 105.53515625 82.46875 C105.76460937 83.35304688 105.9940625 84.23734375 106.23046875 85.1484375 C108.20119921 88.65326951 111.3410388 89.3320988 114.97265625 90.53125 C123.29802739 93.34313032 123.29802739 93.34313032 125.53515625 97.46875 C125.83967955 100.25380421 125.97958616 102.80958074 125.96875 105.59375 C125.97399185 106.37766113 125.9792337 107.16157227 125.9846344 107.96923828 C125.99104565 109.62336037 125.98972918 111.2775281 125.98120117 112.93164062 C125.97268417 115.46046121 126.00147266 117.9870271 126.03320312 120.515625 C126.03481514 122.12499932 126.03423759 123.73437764 126.03125 125.34375 C126.04248398 126.0980127 126.05371796 126.85227539 126.06529236 127.62939453 C126.01911515 131.11219212 125.83242264 133.08050612 123.68603516 135.88378906 C121.0682762 137.81278919 118.48946353 139.00754113 115.47265625 140.21875 C114.42980469 140.64671875 113.38695312 141.0746875 112.3125 141.515625 C109.53515625 142.46875 109.53515625 142.46875 106.53515625 142.46875 C106.19484375 144.3559375 106.19484375 144.3559375 105.84765625 146.28125 C105.00072989 150.22942139 103.63167637 153.53865365 101.84765625 157.15625 C100.375521 160.29651483 99.54245031 162.104047 99.47265625 165.59375 C100.40373585 168.11314186 101.46199515 170.47560843 102.59765625 172.90625 C104.46829579 177.09424897 105.59080802 179.84012302 104.53515625 184.46875 C101.9105249 188.16291862 98.74061712 191.28541029 95.53515625 194.46875 C94.40504556 195.62121599 93.27619554 196.7749192 92.1484375 197.9296875 C81.01822004 209.24786816 81.01822004 209.24786816 76.59765625 209.90625 C71.7818118 209.8241034 67.66917279 207.50959689 63.40234375 205.46484375 C57.2537396 203.3287483 51.56777755 206.98841167 45.88671875 209.38476562 C42.93941261 210.60200306 40.75787246 211.46875 37.53515625 211.46875 C37.43074219 212.32855469 37.32632813 213.18835938 37.21875 214.07421875 C36.48638271 217.71094547 35.27811433 220.48196432 33.59765625 223.78125 C33.07300781 224.82925781 32.54835938 225.87726563 32.0078125 226.95703125 C30.53515625 229.46875 30.53515625 229.46875 28.53515625 230.46875 C23.45217497 230.75271543 18.36824034 230.78247881 13.27807617 230.81884766 C11.57969451 230.83539824 9.88138224 230.86267685 8.18334961 230.90087891 C5.73124162 230.95574658 3.28076478 230.97753513 0.828125 230.9921875 C0.07274948 231.01485687 -0.68262604 231.03752625 -1.46089172 231.06088257 C-5.45954594 231.04491943 -7.25200423 230.63708783 -10.42602539 228.12670898 C-12.74777849 225.09989471 -13.2831816 222.85714503 -14.08984375 219.15625 C-15.74925672 214.40503177 -17.4440272 212.15285246 -21.796875 209.80859375 C-31.78031676 204.98157965 -31.78031676 204.98157965 -42.46484375 205.46875 C-44.76912176 206.40591369 -44.76912176 206.40591369 -46.90234375 207.53125 C-51.0219071 209.39125352 -53.89683405 210.38235194 -58.46484375 209.46875 C-64.47190909 205.08313325 -69.66998961 199.41786241 -74.90234375 194.15625 C-75.98032227 193.08407227 -75.98032227 193.08407227 -77.08007812 191.99023438 C-77.76263672 191.30638672 -78.44519531 190.62253906 -79.1484375 189.91796875 C-79.76259521 189.30268311 -80.37675293 188.68739746 -81.00952148 188.0534668 C-83.61836483 185.21266792 -83.84289738 182.70464085 -83.8359375 178.890625 C-83.2272784 174.9183235 -81.33932359 171.599551 -79.4609375 168.08203125 C-77.44281482 162.78742703 -80.28067723 158.23751933 -82.46484375 153.34375 C-85.37129536 146.74939516 -85.37129536 146.74939516 -86.46484375 143.46875 C-88.92375295 142.34199447 -91.30146362 141.37464031 -93.83984375 140.46875 C-102.34270635 137.40004771 -102.34270635 137.40004771 -104.46484375 134.46875 C-106.23636699 129.15418029 -105.69044664 123.41127388 -105.70507812 117.84521484 C-105.71477903 115.60867047 -105.74581147 113.37304739 -105.77734375 111.13671875 C-105.78387491 109.70833877 -105.78912494 108.27995224 -105.79296875 106.8515625 C-105.80231445 105.55621582 -105.81166016 104.26086914 -105.82128906 102.92626953 C-105.44173957 99.24463943 -104.67124984 97.39923775 -102.46484375 94.46875 C-98.17122259 91.2160067 -90.95331461 87.46875 -85.46484375 87.46875 C-85.23796875 86.210625 -85.01109375 84.9525 -84.77734375 83.65625 C-83.94333379 79.69159073 -82.53870776 76.54477161 -80.65234375 72.96875 C-78.73133528 68.96384053 -78.11529897 66.78835532 -79.52734375 62.53125 C-80.41711744 60.48820742 -81.41902688 58.55368369 -82.4765625 56.59326172 C-84.30125647 52.6707106 -84.70025169 49.66635558 -83.46484375 45.46875 C-80.58538705 41.41142448 -77.27763712 37.98583174 -73.70532227 34.53588867 C-72.03037965 32.90919845 -70.40899185 31.2399586 -68.78710938 29.56054688 C-60.05229344 20.7697316 -60.05229344 20.7697316 -54.53515625 20.58984375 C-49.90098042 21.2614863 -46.18247328 23.30687746 -42.140625 25.5703125 C-38.52369543 26.78475601 -36.93587597 25.94503712 -33.46484375 24.46875 C-32.36785156 24.04335938 -31.27085937 23.61796875 -30.140625 23.1796875 C-27.88990204 22.28567211 -25.63990605 21.38982446 -23.390625 20.4921875 C-20.46484375 19.46875 -20.46484375 19.46875 -17.46484375 19.46875 C-17.28308594 18.90027344 -17.10132813 18.33179687 -16.9140625 17.74609375 C-11.13786279 0.00279311 -11.13786279 0.00279311 0 0 Z " fill="#FCDF75" transform="translate(282.46484375,7.53125)"/>
<path d="M0 0 C13.62615641 4.79766099 27.08840408 9.46254921 41.31057739 12.18286133 C50.68922948 14.08351272 58.20844412 18.14829968 63.84109497 26.0078125 C66.65598712 31.1811278 67.23266972 35.66060105 67.12234497 41.5078125 C67.1042981 42.75304687 67.08625122 43.99828125 67.06765747 45.28125 C67.04445435 46.22226562 67.02125122 47.16328125 66.99734497 48.1328125 C77.41660318 42.46691523 87.68464499 36.58058201 97.87234497 30.5078125 C106.94289393 25.10859938 116.03264477 19.74634244 125.18539429 14.48736572 C126.94086169 13.47779605 128.69351783 12.46334297 130.44607544 11.44873047 C145.5078656 2.82512601 161.77862903 -5.5996609 179.67312622 -1.2109375 C186.60703828 1.56741759 192.89999498 6.45623744 196.49734497 13.0703125 C199.48766982 20.85316691 199.50960185 31.55227552 196.30984497 39.2578125 C192.48698342 46.84060783 186.92291214 50.80290907 179.80984497 55.0078125 C177.91388148 56.15473278 176.01805431 57.30187845 174.12234497 58.44921875 C172.62380981 59.34858154 172.62380981 59.34858154 171.09500122 60.26611328 C165.80834648 63.45193943 160.56233081 66.70358406 155.30984497 69.9453125 C153.09786215 71.30640695 150.88562025 72.66708045 148.67312622 74.02734375 C142.11365246 78.06107064 135.55538418 82.09675385 128.99734497 86.1328125 C126.83068389 87.46615492 124.66401722 88.79948824 122.49734497 90.1328125 C121.42484497 90.7928125 120.35234497 91.4528125 119.24734497 92.1328125 C115.99734497 94.1328125 112.74734497 96.1328125 109.49734497 98.1328125 C107.88702393 99.12414185 107.88702393 99.12414185 106.24417114 100.13549805 C104.08895593 101.46129816 101.93287533 102.78569259 99.77590942 104.10864258 C94.76413067 107.1848535 89.761289 110.27288627 84.7902832 113.41452026 C83.049663 114.51362768 81.30618744 115.60805811 79.5617981 116.70117188 C77.38937321 118.06443446 75.22222992 119.43616941 73.0617981 120.81835938 C64.29917542 126.29570658 54.50589177 131.54900434 43.99734497 132.1328125 C43.29609497 132.20628906 42.59484497 132.27976562 41.87234497 132.35546875 C35.74237762 132.72901364 30.19202417 131.64000269 24.28640747 130.19140625 C23.39510132 129.97595657 22.50379517 129.7605069 21.58547974 129.53852844 C5.0785836 125.49119084 -11.31583339 120.96776056 -27.72628784 116.54858398 C-31.54866037 115.51957785 -35.37260656 114.49660921 -39.19760132 113.47739601 C-40.63988186 113.09178418 -42.08154593 112.70385845 -43.52255249 112.3135128 C-45.52226213 111.77193636 -47.52387973 111.23804575 -49.52609253 110.70581055 C-50.65966187 110.4011235 -51.7932312 110.09643646 -52.96115112 109.78251648 C-55.80168325 109.17574263 -58.11692771 108.84905216 -61.00265503 109.1328125 C-63.79323673 111.03097792 -63.79323673 111.03097792 -66.00265503 113.1328125 C-65.65331909 113.70128906 -65.30398315 114.26976562 -64.94406128 114.85546875 C-61.24711035 121.12876509 -59.56285994 125.66942614 -60.50265503 133.0703125 C-62.88613039 141.18346426 -69.7951759 146.1285359 -76.8522644 150.1015625 C-77.78876831 150.606875 -78.72527222 151.1121875 -79.69015503 151.6328125 C-81.06590698 152.4371875 -81.06590698 152.4371875 -82.4694519 153.2578125 C-89.73297652 157.23726973 -96.92917013 158.83634229 -105.09078979 156.54711914 C-113.76387044 152.41262285 -118.23946126 140.34198563 -122.62765503 132.3828125 C-123.86906784 130.14800699 -125.11126742 127.91363836 -126.35421753 125.6796875 C-126.96942261 124.57302734 -127.58462769 123.46636719 -128.21847534 122.32617188 C-130.77956152 117.7422902 -133.38738897 113.18593338 -136.00265503 108.6328125 C-140.985525 99.94738174 -145.88643873 91.21783173 -150.76535034 82.47363281 C-155.20140093 74.53322582 -159.70270867 66.63201324 -164.27218628 58.76757812 C-168.00676478 52.29188142 -171.11798416 46.86862094 -170.00265503 39.1328125 C-167.05517127 29.18971856 -157.62133682 24.62459711 -149.12765503 19.8203125 C-148.38902222 19.37880859 -147.6503894 18.93730469 -146.88937378 18.48242188 C-141.40466721 15.37885741 -136.34465297 13.95716454 -130.00265503 14.1328125 C-123.63911098 16.11489999 -119.0312013 19.08855044 -115.69015503 24.8828125 C-115.13328003 25.9553125 -114.57640503 27.0278125 -114.00265503 28.1328125 C-105.87354647 24.18938732 -98.02220514 19.92819989 -90.25265503 15.3203125 C-88.15026214 14.08513428 -86.04739651 12.85076036 -83.94406128 11.6171875 C-82.93101929 11.02228516 -81.91797729 10.42738281 -80.87423706 9.81445312 C-50.90842129 -7.73396883 -32.88706294 -11.6001654 0 0 Z " fill="#010101" transform="translate(236.00265502929688,346.8671875)"/>
<path d="M0 0 C4.4088759 1.6618539 8.84431787 3.25025626 13.27593994 4.85021973 C14.13407288 5.16237427 14.99220581 5.47452881 15.87634277 5.79614258 C22.32710542 8.13354537 28.80986299 10.26341575 35.42047119 12.10803223 C36.18303223 12.32282227 36.94559326 12.5376123 37.73126221 12.75891113 C42.38680485 14.02230922 47.05640095 14.95391343 51.81329346 15.75549316 C55.48102737 16.74553662 57.41670299 18.66185971 60.04547119 21.35803223 C61.78832702 24.84374389 60.90906152 28.6531638 60.04547119 32.35803223 C57.79957794 35.35255656 56.59677752 36.17426345 53.04547119 37.35803223 C46.72478032 37.84171674 41.26281432 36.33014511 35.23297119 34.67053223 C34.22556885 34.40232666 33.2181665 34.13412109 32.18023682 33.85778809 C27.36322099 32.5679507 22.56474177 31.22869629 17.78375244 29.81115723 C16.97978027 29.57614502 16.17580811 29.34113281 15.34747314 29.09899902 C13.85904866 28.66031712 12.37413773 28.2094503 10.89385986 27.74401855 C6.26965557 26.37932653 2.73681507 26.22624551 -1.95452881 27.35803223 C-4.30266615 29.28970621 -4.30266615 29.28970621 -4.32952881 32.73303223 C-4.28334889 36.32306342 -4.28334889 36.32306342 -2.30584717 38.46179199 C0.44973511 40.68405422 2.62701814 41.41352361 6.04156494 42.32287598 C7.2292749 42.64578613 8.41698486 42.96869629 9.64068604 43.3013916 C10.90864014 43.62945801 12.17659424 43.95752441 13.48297119 44.29553223 C14.80293912 44.6432945 16.12276227 44.99160675 17.44244385 45.3404541 C20.08292075 46.03552724 22.72568752 46.72088437 25.37017822 47.4005127 C28.53367769 48.2246953 31.67867666 49.09254835 34.82281494 49.98693848 C50.24556109 54.23279455 69.40004659 57.33009828 84.04547119 49.35803223 C84.68822998 49.02432617 85.33098877 48.69062012 85.9932251 48.34680176 C97.74406872 42.24284053 109.08412324 35.41020285 120.45782471 28.63903809 C128.33688352 23.9501517 136.23282056 19.29221856 144.17657471 14.71359253 C145.92285072 13.70524735 147.664906 12.68960348 149.40679932 11.67370605 C168.65065987 0.6227621 168.65065987 0.6227621 178.98297119 0.73303223 C180.20886963 0.7201416 181.43476807 0.70725098 182.69781494 0.69396973 C186.89443016 1.52643716 188.36958014 3.09571201 191.04547119 6.35803223 C192.87518491 10.01745966 192.31163404 13.99394765 191.54547119 17.92053223 C187.04459122 25.23446218 176.99075823 29.59201683 169.85797119 33.92053223 C168.69623665 34.62971538 167.53478257 35.33935815 166.37359619 36.04943848 C164.03279732 37.48066284 161.69105895 38.91032991 159.34869385 40.33898926 C154.73527925 43.15886647 150.13940181 46.00656514 145.54547119 48.85803223 C134.51658388 55.69373318 123.46407869 62.49091432 112.41119385 69.28771973 C107.8977105 72.0640391 103.38570665 74.84275783 98.87384033 77.6217041 C95.61198036 79.6295915 92.34830232 81.63449929 89.08453369 83.63928223 C85.27822199 85.9786657 81.48118037 88.33171074 77.69390869 90.70178223 C76.87986572 91.20798096 76.06582275 91.71417969 75.22711182 92.23571777 C73.75609635 93.15074295 72.28828394 94.07095185 70.82476807 94.9979248 C60.34515168 101.49067427 49.7177248 103.3685357 37.53668213 100.83654785 C32.1917295 99.47942301 26.94555352 97.8142911 21.68756104 96.15734863 C17.5127876 94.89434658 13.28521193 93.87687493 9.04547119 92.85803223 C2.24541573 91.20088146 -4.48529585 89.37914943 -11.20452881 87.42053223 C-19.00932209 85.16218038 -26.8367397 83.01173039 -34.70452881 80.98303223 C-35.69227295 80.72014404 -36.68001709 80.45725586 -37.69769287 80.18640137 C-44.59063575 78.43850606 -51.27468173 76.78296392 -58.02093506 79.67053223 C-58.844646 80.22740723 -59.66835693 80.78428223 -60.51702881 81.35803223 C-61.36394287 81.91490723 -62.21085693 82.47178223 -63.08343506 83.04553223 C-63.700896 83.47865723 -64.31835693 83.91178223 -64.95452881 84.35803223 C-67.7212985 81.89247091 -69.29997776 79.20706537 -71.07171631 75.96740723 C-71.6729834 74.87532959 -72.27425049 73.78325195 -72.89373779 72.65808105 C-73.53900984 71.47473601 -74.18427333 70.2913863 -74.82952881 69.10803223 C-75.83010108 67.28667055 -76.83261056 65.46638476 -77.83531189 63.64619446 C-78.51930149 62.40446149 -79.20273808 61.16242375 -79.88563538 59.92008972 C-83.33901154 53.642541 -86.85901932 47.40362166 -90.39202881 41.17053223 C-90.95325439 40.17956543 -91.51447998 39.18859863 -92.0927124 38.16760254 C-93.37909046 35.89723672 -94.66629205 33.62734374 -95.95452881 31.35803223 C-93.09350274 28.27273525 -90.2673122 26.18355314 -86.61468506 24.10803223 C-85.03505981 23.20383545 -85.03505981 23.20383545 -83.42352295 22.28137207 C-82.29937988 21.64666992 -81.17523682 21.01196777 -80.01702881 20.35803223 C-78.84801896 19.69272144 -77.67932098 19.02686239 -76.51092529 18.36047363 C-74.13829132 17.00812797 -71.7637807 15.65915876 -69.38812256 14.31213379 C-66.23436376 12.51728983 -63.09198719 10.70461596 -59.95452881 8.88146973 C-58.57188843 8.08096191 -58.57188843 8.08096191 -57.16131592 7.26428223 C-55.46237865 6.28046406 -53.76512578 5.29372821 -52.07000732 4.30334473 C-33.11449509 -6.60788158 -20.22444435 -7.62766976 0 0 Z " fill="#F4DACB" transform="translate(225.95452880859375,360.6419677734375)"/>
<path d="M0 0 C1.76782227 1.66845703 1.76782227 1.66845703 2.76782227 4.66845703 C2.72930805 7.4562939 2.62553446 10.20063661 2.45532227 12.98095703 C2.40537109 13.8067627 2.35541992 14.63256836 2.30395508 15.48339844 C2.1915741 17.26653217 2.07503593 19.04940766 1.95483398 20.83203125 C1.82736545 22.76535954 1.70959817 24.69934611 1.6003418 26.63378906 C1.43000512 29.60575389 1.22753058 32.57403686 1.01782227 35.54345703 C0.94374146 36.94204956 0.94374146 36.94204956 0.86816406 38.36889648 C0.51502562 42.85938689 0.20204488 45.09907903 -2.59155273 48.76220703 C-5.23217773 50.66845703 -5.23217773 50.66845703 -8.73217773 51.29345703 C-12.23217773 50.66845703 -12.23217773 50.66845703 -15.16967773 48.79345703 C-18.67817381 43.47755389 -17.57212717 38.13309047 -16.73217773 32.04345703 C-16.56717773 31.25970703 -16.40217773 30.47595703 -16.23217773 29.66845703 C-21.16266781 33.8988473 -25.96961703 38.25117855 -30.73217773 42.66845703 C-34.81515131 46.45481424 -38.92987597 50.18612845 -43.14233398 53.82861328 C-45.87588332 56.23515859 -48.55331779 58.70148899 -51.23217773 61.16845703 C-55.14196955 64.76861027 -59.09084309 68.31263367 -63.10717773 71.79345703 C-65.85041192 74.21395778 -68.54102342 76.69046345 -71.23217773 79.16845703 C-74.53246696 82.20733721 -77.84167057 85.23001749 -81.23217773 88.16845703 C-84.69933895 91.17672926 -88.09660046 94.25660006 -91.48217773 97.35595703 C-91.99006836 97.82001953 -92.49795898 98.28408203 -93.02124023 98.76220703 C-95.82453704 101.33560384 -98.56370141 103.95550611 -101.23217773 106.66845703 C-100.90217773 107.63783203 -100.57217773 108.60720703 -100.23217773 109.60595703 C-98.06181881 117.38177534 -98.71641288 125.38103304 -102.23217773 132.66845703 C-107.68649743 140.37323791 -113.32185101 144.69834812 -122.23217773 147.66845703 C-132.90902017 148.57051713 -140.23504373 147.13808478 -148.54467773 140.35595703 C-154.34647722 134.94632689 -157.96141671 128.30931163 -158.34936523 120.22705078 C-158.35622162 118.03643577 -158.32150877 115.85706735 -158.23217773 113.66845703 C-158.90998291 113.57024658 -159.58778809 113.47203613 -160.28613281 113.37084961 C-163.88773765 112.5121592 -167.0531243 111.03134571 -170.36889648 109.43017578 C-171.04837845 109.10813675 -171.72786041 108.78609772 -172.42793274 108.45429993 C-174.59438511 107.4267561 -176.7572437 106.39192727 -178.91967773 105.35595703 C-181.75509528 104.00183773 -184.59219529 102.65134411 -187.43139648 101.30517578 C-188.11023895 100.98322235 -188.78908142 100.66126892 -189.48849487 100.32955933 C-194.65598729 97.89739448 -199.88244729 95.67288636 -205.23217773 93.66845703 C-205.6766626 94.09843994 -206.12114746 94.52842285 -206.57910156 94.97143555 C-212.56749459 100.65466411 -218.5171359 102.7680925 -226.73217773 103.04345703 C-234.88507996 102.7925985 -240.57438397 100.26527898 -247.23217773 95.66845703 C-247.93375 96.06935547 -248.63532227 96.47025391 -249.3581543 96.88330078 C-297.40795898 124.34033203 -297.40795898 124.34033203 -300.48852539 126.09619141 C-302.16534605 127.05710305 -303.83801406 128.0253677 -305.50317383 129.00634766 C-310.03132397 131.66845703 -310.03132397 131.66845703 -312.23217773 131.66845703 C-312.17416992 132.63525391 -312.11616211 133.60205078 -312.05639648 134.59814453 C-311.70536967 144.72777556 -312.92354246 151.71352646 -319.73217773 159.54345703 C-320.55717773 160.24470703 -321.38217773 160.94595703 -322.23217773 161.66845703 C-322.91280273 162.36970703 -323.59342773 163.07095703 -324.29467773 163.79345703 C-330.89779705 168.00821404 -339.07140048 169.48165353 -346.79467773 168.29345703 C-356.47974888 165.81010546 -363.21084656 160.26235697 -368.39233398 151.76611328 C-371.81435515 144.23766672 -371.37130765 134.84906937 -368.54467773 127.23095703 C-364.57456092 118.68206439 -358.62157706 113.80387941 -349.91967773 110.35595703 C-338.33996596 108.19702772 -330.14517413 110.66664805 -320.23217773 116.66845703 C-295.54418221 102.61607157 -295.54418221 102.61607157 -271.01904297 88.28198242 C-268.99965917 87.11280962 -266.95662449 85.98418025 -264.90039062 84.88110352 C-263.80460693 84.28241455 -262.70882324 83.68372559 -261.57983398 83.06689453 C-260.57186768 82.53112793 -259.56390137 81.99536133 -258.52539062 81.44335938 C-256.01854194 79.87742796 -256.01854194 79.87742796 -255.59692383 77.21069336 C-255.6351263 74.81360856 -255.6351263 74.81360856 -255.98608398 72.28173828 C-256.56224177 66.16349134 -254.0116755 60.39280654 -250.60717773 55.41845703 C-244.50934118 48.05334393 -237.91389473 44.85232762 -228.43920898 43.79345703 C-219.60195917 43.4490088 -212.93458698 45.87767816 -206.23217773 51.66845703 C-200.20215793 57.92229853 -197.08558384 65.03159128 -197.04467773 73.73095703 C-197.10655273 75.03033203 -197.16842773 76.32970703 -197.23217773 77.66845703 C-196.42731934 77.91176758 -195.62246094 78.15507812 -194.79321289 78.40576172 C-190.45707908 79.94329662 -186.39725747 81.87801709 -182.25561523 83.87158203 C-180.51638815 84.69525135 -178.7767937 85.51814535 -177.03686523 86.34033203 C-174.30984787 87.63233664 -171.58544383 88.92892896 -168.86694336 90.23876953 C-166.2322657 91.50584273 -163.58882877 92.75275234 -160.94311523 93.99658203 C-160.12950531 94.39435852 -159.31589539 94.79213501 -158.47763062 95.20196533 C-157.33591904 95.73306915 -157.33591904 95.73306915 -156.17114258 96.27490234 C-155.50529144 96.59307922 -154.83944031 96.9112561 -154.15341187 97.23907471 C-151.54455246 97.82213645 -150.46431393 97.04149853 -148.23217773 95.66845703 C-147.48838867 95.25466797 -146.74459961 94.84087891 -145.97827148 94.41455078 C-144.43612066 93.54040437 -142.89445546 92.6654007 -141.35327148 91.78955078 C-134.84408302 88.34915098 -125.54486 88.62074326 -118.46655273 90.34033203 C-116.29467773 91.16845703 -116.29467773 91.16845703 -113.23217773 92.66845703 C-112.81967773 92.24435547 -112.40717773 91.82025391 -111.98217773 91.38330078 C-108.29862111 87.64218858 -104.50834826 84.11140793 -100.53295898 80.68408203 C-97.72444753 78.22365434 -94.97755894 75.69870711 -92.23217773 73.16845703 C-88.32254494 69.56813255 -84.37350834 66.02427689 -80.35717773 62.54345703 C-77.61394355 60.12295628 -74.92333205 57.64645061 -72.23217773 55.16845703 C-68.32236178 51.56832947 -64.37351306 48.02428098 -60.35717773 44.54345703 C-57.61394129 42.12295428 -54.92343188 39.64634448 -52.23217773 37.16845703 C-45.7051825 31.16280681 -39.07388871 25.31286858 -32.23217773 19.66845703 C-33.04041992 19.71486328 -33.84866211 19.76126953 -34.68139648 19.80908203 C-43.38003258 20.10288397 -43.38003258 20.10288397 -47.41967773 18.04345703 C-49.66622253 15.09970868 -50.23217773 13.37276297 -50.23217773 9.66845703 C-48.85824043 6.78973126 -47.48228336 4.91856266 -45.23217773 2.66845703 C-42.97884615 2.22062417 -40.70333732 1.8823667 -38.42358398 1.59814453 C-37.74222885 1.51219025 -37.06087372 1.42623596 -36.35887146 1.337677 C-34.91098566 1.15714416 -33.46255961 0.98090085 -32.01367188 0.80859375 C-29.83296777 0.54803212 -27.65475195 0.27151132 -25.47631836 -0.00732422 C-4.41935291 -2.63624093 -4.41935291 -2.63624093 0 0 Z " fill="#000000" transform="translate(443.232177734375,183.33154296875)"/>
<path d="M0 0 C0.82971817 -0.00761353 1.65943634 -0.01522705 2.51429749 -0.02307129 C4.26853426 -0.033873 6.02283535 -0.03672509 7.77709961 -0.03222656 C10.45991409 -0.03125462 13.13986458 -0.0728625 15.82226562 -0.1171875 C17.52733779 -0.1223949 19.23241989 -0.12508269 20.9375 -0.125 C21.73864731 -0.14139526 22.53979462 -0.15779053 23.36521912 -0.17468262 C27.28915262 -0.12604958 29.11341607 0.0704283 32.01489258 2.81079102 C33.72867891 5.80709611 34.45041187 8.56333499 35.28515625 11.90625 C36.87702137 16.41803392 36.87702137 16.41803392 40.27636719 19.61914062 C43.72180658 21.24500391 47.26179379 22.36851112 50.91796875 23.41796875 C54.53515625 24.46875 54.53515625 24.46875 57.53515625 26.46875 C61.75117448 26.22074893 65.1943883 24.24648646 68.86328125 22.30859375 C73.07331026 20.98526592 76.20159702 20.16729379 80.53515625 21.46875 C85.01907389 24.80569894 88.72889805 28.7699861 92.53515625 32.84375 C93.59168796 33.93689259 94.65026596 35.02806131 95.7109375 36.1171875 C104.91803172 45.64177405 104.91803172 45.64177405 104.90625 51.2734375 C104.26218839 55.08357037 102.34185534 58.34187826 100.53125 61.72265625 C98.596129 67.05751925 100.80819436 71.55362992 102.97265625 76.53125 C103.40449219 77.53285156 103.83632813 78.53445312 104.28125 79.56640625 C104.69503906 80.52417969 105.10882813 81.48195313 105.53515625 82.46875 C105.76460937 83.35304688 105.9940625 84.23734375 106.23046875 85.1484375 C108.20119921 88.65326951 111.3410388 89.3320988 114.97265625 90.53125 C123.29802739 93.34313032 123.29802739 93.34313032 125.53515625 97.46875 C125.83967955 100.25380421 125.97958616 102.80958074 125.96875 105.59375 C125.97399185 106.37766113 125.9792337 107.16157227 125.9846344 107.96923828 C125.99104565 109.62336037 125.98972918 111.2775281 125.98120117 112.93164062 C125.97268417 115.46046121 126.00147266 117.9870271 126.03320312 120.515625 C126.03481514 122.12499932 126.03423759 123.73437764 126.03125 125.34375 C126.04248398 126.0980127 126.05371796 126.85227539 126.06529236 127.62939453 C126.01911515 131.11219212 125.83242264 133.08050612 123.68603516 135.88378906 C121.0682762 137.81278919 118.48946353 139.00754113 115.47265625 140.21875 C114.42980469 140.64671875 113.38695312 141.0746875 112.3125 141.515625 C109.53515625 142.46875 109.53515625 142.46875 106.53515625 142.46875 C106.19484375 144.3559375 106.19484375 144.3559375 105.84765625 146.28125 C105.00072989 150.22942139 103.63167637 153.53865365 101.84765625 157.15625 C100.375521 160.29651483 99.54245031 162.104047 99.47265625 165.59375 C100.40373585 168.11314186 101.46199515 170.47560843 102.59765625 172.90625 C104.46829579 177.09424897 105.59080802 179.84012302 104.53515625 184.46875 C101.9105249 188.16291862 98.74061712 191.28541029 95.53515625 194.46875 C94.40504556 195.62121599 93.27619554 196.7749192 92.1484375 197.9296875 C81.01822004 209.24786816 81.01822004 209.24786816 76.59765625 209.90625 C71.7818118 209.8241034 67.66917279 207.50959689 63.40234375 205.46484375 C57.2537396 203.3287483 51.56777755 206.98841167 45.88671875 209.38476562 C42.93941261 210.60200306 40.75787246 211.46875 37.53515625 211.46875 C37.43074219 212.32855469 37.32632813 213.18835938 37.21875 214.07421875 C36.48638271 217.71094547 35.27811433 220.48196432 33.59765625 223.78125 C33.07300781 224.82925781 32.54835938 225.87726563 32.0078125 226.95703125 C30.53515625 229.46875 30.53515625 229.46875 28.53515625 230.46875 C23.45217497 230.75271543 18.36824034 230.78247881 13.27807617 230.81884766 C11.57969451 230.83539824 9.88138224 230.86267685 8.18334961 230.90087891 C5.73124162 230.95574658 3.28076478 230.97753513 0.828125 230.9921875 C0.07274948 231.01485687 -0.68262604 231.03752625 -1.46089172 231.06088257 C-5.45954594 231.04491943 -7.25200423 230.63708783 -10.42602539 228.12670898 C-12.74777849 225.09989471 -13.2831816 222.85714503 -14.08984375 219.15625 C-15.74925672 214.40503177 -17.4440272 212.15285246 -21.796875 209.80859375 C-31.78031676 204.98157965 -31.78031676 204.98157965 -42.46484375 205.46875 C-44.76912176 206.40591369 -44.76912176 206.40591369 -46.90234375 207.53125 C-51.0219071 209.39125352 -53.89683405 210.38235194 -58.46484375 209.46875 C-64.47190909 205.08313325 -69.66998961 199.41786241 -74.90234375 194.15625 C-75.98032227 193.08407227 -75.98032227 193.08407227 -77.08007812 191.99023438 C-77.76263672 191.30638672 -78.44519531 190.62253906 -79.1484375 189.91796875 C-79.76259521 189.30268311 -80.37675293 188.68739746 -81.00952148 188.0534668 C-83.61836483 185.21266792 -83.84289738 182.70464085 -83.8359375 178.890625 C-83.2272784 174.9183235 -81.33932359 171.599551 -79.4609375 168.08203125 C-77.44281482 162.78742703 -80.28067723 158.23751933 -82.46484375 153.34375 C-85.37129536 146.74939516 -85.37129536 146.74939516 -86.46484375 143.46875 C-88.92375295 142.34199447 -91.30146362 141.37464031 -93.83984375 140.46875 C-102.34270635 137.40004771 -102.34270635 137.40004771 -104.46484375 134.46875 C-106.23636699 129.15418029 -105.69044664 123.41127388 -105.70507812 117.84521484 C-105.71477903 115.60867047 -105.74581147 113.37304739 -105.77734375 111.13671875 C-105.78387491 109.70833877 -105.78912494 108.27995224 -105.79296875 106.8515625 C-105.80231445 105.55621582 -105.81166016 104.26086914 -105.82128906 102.92626953 C-105.44173957 99.24463943 -104.67124984 97.39923775 -102.46484375 94.46875 C-98.17122259 91.2160067 -90.95331461 87.46875 -85.46484375 87.46875 C-85.23796875 86.210625 -85.01109375 84.9525 -84.77734375 83.65625 C-83.94333379 79.69159073 -82.53870776 76.54477161 -80.65234375 72.96875 C-78.73133528 68.96384053 -78.11529897 66.78835532 -79.52734375 62.53125 C-80.41711744 60.48820742 -81.41902688 58.55368369 -82.4765625 56.59326172 C-84.30125647 52.6707106 -84.70025169 49.66635558 -83.46484375 45.46875 C-80.58538705 41.41142448 -77.27763712 37.98583174 -73.70532227 34.53588867 C-72.03037965 32.90919845 -70.40899185 31.2399586 -68.78710938 29.56054688 C-60.05229344 20.7697316 -60.05229344 20.7697316 -54.53515625 20.58984375 C-49.90098042 21.2614863 -46.18247328 23.30687746 -42.140625 25.5703125 C-38.52369543 26.78475601 -36.93587597 25.94503712 -33.46484375 24.46875 C-32.36785156 24.04335938 -31.27085937 23.61796875 -30.140625 23.1796875 C-27.88990204 22.28567211 -25.63990605 21.38982446 -23.390625 20.4921875 C-20.46484375 19.46875 -20.46484375 19.46875 -17.46484375 19.46875 C-17.28308594 18.90027344 -17.10132813 18.33179687 -16.9140625 17.74609375 C-11.13786279 0.00279311 -11.13786279 0.00279311 0 0 Z M1.53515625 16.46875 C-1.09553805 21.61293001 -1.09553805 21.61293001 -3.42944336 26.89013672 C-4.59595039 29.81836166 -5.53097211 31.90847699 -8.28955078 33.56347656 C-10.51622082 34.39250665 -12.72252673 35.01760514 -15.02734375 35.59375 C-20.66413433 37.2027287 -25.59541003 38.84250882 -30.65234375 41.90625 C-33.9404052 43.81302536 -35.2009206 44.4596492 -39.08984375 44.59375 C-42.67464596 43.39881593 -45.99430325 41.94025399 -49.3515625 40.2109375 C-51.99473209 39.28265243 -52.90381118 39.33374693 -55.46484375 40.46875 C-58.16773434 42.58199004 -58.16773434 42.58199004 -60.77734375 45.21875 C-61.68097656 46.07984375 -62.58460938 46.9409375 -63.515625 47.828125 C-65.73370258 50.26466519 -65.73370258 50.26466519 -65.390625 53.0234375 C-64.20874791 56.1451888 -62.76229179 59.04255544 -61.20703125 61.9921875 C-59.8161653 66.63328756 -61.00166059 70.44512737 -62.953125 74.7578125 C-63.55511719 75.85867187 -64.15710938 76.95953125 -64.77734375 78.09375 C-67.34664021 82.8618023 -69.02271707 87.21718221 -70.27734375 92.53125 C-71.28406924 96.11362381 -71.82643117 97.94430015 -74.71875 100.3203125 C-77.28092155 101.62621812 -79.72460835 102.60277056 -82.46484375 103.46875 C-85.43484375 104.45875 -85.43484375 104.45875 -88.46484375 105.46875 C-88.46484375 111.73875 -88.46484375 118.00875 -88.46484375 124.46875 C-83.99779813 126.27634232 -83.99779813 126.27634232 -79.52026367 128.05761719 C-75.77307538 129.61827294 -73.39522227 130.86147701 -71.46484375 134.46875 C-70.81483721 136.4270324 -70.23788557 138.41030267 -69.71484375 140.40625 C-67.91281184 146.68862793 -65.19331982 151.85912466 -61.7578125 157.3984375 C-59.82521814 161.98761928 -60.65540536 165.45142874 -62.47265625 169.98046875 C-63.22170924 171.43928873 -63.97172026 172.89761716 -64.72265625 174.35546875 C-65.6622341 177.03079304 -65.65728319 177.88593584 -64.46484375 180.46875 C-62.65441868 182.49100327 -60.86134617 184.35512972 -58.90234375 186.21875 C-58.38220703 186.72535156 -57.86207031 187.23195312 -57.32617188 187.75390625 C-56.04574291 188.99909405 -54.75616821 190.23486502 -53.46484375 191.46875 C-51.83942182 190.82397931 -50.21451951 190.17789857 -48.58984375 189.53125 C-47.23246094 188.99177734 -47.23246094 188.99177734 -45.84765625 188.44140625 C-43.50346708 187.51973738 -43.50346708 187.51973738 -41.46484375 186.46875 C-35.41165917 185.89726922 -31.89229709 187.37118554 -26.77734375 190.21875 C-20.91460544 193.34317471 -15.26465158 195.74218126 -8.8203125 197.484375 C-4.8889536 199.12733096 -3.81197596 201.71385968 -2.078125 205.484375 C-0.87369792 208.47916667 0.33072917 211.47395833 1.53515625 214.46875 C7.47515625 214.46875 13.41515625 214.46875 19.53515625 214.46875 C21.26347 209.67576053 21.26347 209.67576053 22.94384766 204.8659668 C24.30521259 201.28410915 25.09184431 199.75823512 28.39453125 197.6015625 C31.30373208 196.55222389 34.19933199 195.5493912 37.16015625 194.65625 C41.67450737 193.22241143 45.63163793 191.42754103 49.78515625 189.15625 C55.17000596 186.39029989 57.71637394 185.75173227 63.53515625 187.46875 C65.88724845 188.52151673 68.18717752 189.60356 70.45703125 190.82421875 C72.50842635 191.6701633 72.50842635 191.6701633 74.47265625 190.90234375 C77.2278994 188.98724103 79.44466039 186.74583786 81.78515625 184.34375 C82.6771875 183.43367187 83.56921875 182.52359375 84.48828125 181.5859375 C85.16375 180.88726562 85.83921875 180.18859375 86.53515625 179.46875 C86.07879089 178.072272 85.61996137 176.6765992 85.16015625 175.28125 C84.88945312 174.45496094 84.61875 173.62867188 84.33984375 172.77734375 C83.55084921 170.37906685 83.55084921 170.37906685 82.28515625 167.84375 C80.4296463 161.96796849 83.20299733 156.47918316 85.84765625 151.28125 C88.21829898 146.49994614 90.06512019 141.95489606 91.47265625 136.78125 C92.99781671 131.93967679 92.99781671 131.93967679 95.2734375 129.9453125 C97.35094526 128.87226966 99.30164661 128.16580938 101.53515625 127.46875 C105.49515625 125.98375 105.49515625 125.98375 109.53515625 124.46875 C109.53515625 118.52875 109.53515625 112.58875 109.53515625 106.46875 C107.65828125 105.746875 105.78140625 105.025 103.84765625 104.28125 C99.00066426 102.41702231 95.84275953 100.52027789 92.53515625 96.46875 C91.1640625 93.12109375 91.1640625 93.12109375 90.09765625 89.40625 C88.56498938 84.27238271 86.76075715 79.75197126 84.16015625 75.03125 C82.01392544 70.88813949 80.77607717 68.10112141 81.8359375 63.4921875 C83.24556537 59.41292919 84.79500136 55.4184969 86.53515625 51.46875 C84.65688218 49.4287107 82.76057263 47.41335453 80.84765625 45.40625 C80.05198242 44.53516602 80.05198242 44.53516602 79.24023438 43.64648438 C77.73458376 42.08541104 76.32271692 40.69814521 74.53515625 39.46875 C71.12955196 39.50835005 69.33182376 40.56466155 66.22265625 42.03125 C60.62470137 44.2135036 56.41213592 44.1857079 50.89453125 42.078125 C49.68435738 41.4722119 48.48128903 40.85193074 47.28515625 40.21875 C41.61317406 37.36918615 36.0650971 35.19085108 29.92578125 33.48828125 C23.54970985 30.76907433 21.91095298 22.37613647 19.53515625 16.46875 C13.59515625 16.46875 7.65515625 16.46875 1.53515625 16.46875 Z " fill="#010100" transform="translate(282.46484375,7.53125)"/>
<path d="M0 0 C10.0784437 7.7262876 17.50306202 16.46809577 22.33984375 28.25 C22.68015625 29.0646875 23.02046875 29.879375 23.37109375 30.71875 C27.97077258 44.17706955 26.82978691 60.01937849 21.046875 72.859375 C18.80363363 77.31505809 16.44943544 81.34930312 13.33984375 85.25 C12.81777344 85.93320313 12.29570312 86.61640625 11.7578125 87.3203125 C3.23449951 97.8197566 -9.37039976 104.74924207 -22.70703125 106.96484375 C-34.24386567 108.07885025 -44.93511149 108.17523515 -55.66015625 103.25 C-56.59214844 102.82589844 -57.52414062 102.40179688 -58.484375 101.96484375 C-72.88051882 94.75673269 -83.28912713 82.71015354 -88.6015625 67.56640625 C-93.87830891 50.41060752 -92.00006296 35.46956924 -83.6796875 19.58203125 C-80.59774549 14.49712499 -76.90980841 10.38098822 -72.66015625 6.25 C-71.72236328 5.28126953 -71.72236328 5.28126953 -70.765625 4.29296875 C-52.00319055 -13.8374679 -21.10010083 -13.88082992 0 0 Z " fill="#F9BE36" transform="translate(325.66015625,73.75)"/>
<path d="M0 0 C10.0784437 7.7262876 17.50306202 16.46809577 22.33984375 28.25 C22.68015625 29.0646875 23.02046875 29.879375 23.37109375 30.71875 C27.97077258 44.17706955 26.82978691 60.01937849 21.046875 72.859375 C18.80363363 77.31505809 16.44943544 81.34930312 13.33984375 85.25 C12.81777344 85.93320313 12.29570312 86.61640625 11.7578125 87.3203125 C3.23449951 97.8197566 -9.37039976 104.74924207 -22.70703125 106.96484375 C-34.24386567 108.07885025 -44.93511149 108.17523515 -55.66015625 103.25 C-56.59214844 102.82589844 -57.52414062 102.40179688 -58.484375 101.96484375 C-72.88051882 94.75673269 -83.28912713 82.71015354 -88.6015625 67.56640625 C-93.87830891 50.41060752 -92.00006296 35.46956924 -83.6796875 19.58203125 C-80.59774549 14.49712499 -76.90980841 10.38098822 -72.66015625 6.25 C-71.72236328 5.28126953 -71.72236328 5.28126953 -70.765625 4.29296875 C-52.00319055 -13.8374679 -21.10010083 -13.88082992 0 0 Z M-66.03515625 21.625 C-74.92874585 32.86443497 -75.93745226 45.43065099 -74.66015625 59.25 C-72.16837227 70.33539994 -64.5966117 78.59929433 -55.66015625 85.25 C-54.0014979 86.19816987 -52.31333655 87.09689621 -50.59765625 87.9375 C-49.34275391 88.56205078 -49.34275391 88.56205078 -48.0625 89.19921875 C-39.8235018 92.80294317 -28.71342013 92.53266654 -20.08984375 90.34375 C-8.0307162 85.53243568 0.99085066 77.57824372 6.77734375 65.9375 C10.9858124 55.40501529 11.3566437 43.28557053 7.27734375 32.625 C1.0048829 20.06255746 -7.90810761 12.43800465 -21.21484375 7.9765625 C-38.16258479 2.94097171 -54.14826206 8.8307093 -66.03515625 21.625 Z " fill="#040301" transform="translate(325.66015625,73.75)"/>
<path d="M0 0 C1.28436724 0.48387034 2.56952317 0.96565252 3.85546875 1.4453125 C6.95365038 2.61004244 10.04235317 3.79488958 13.125 5 C10.24651992 7.25469828 7.30986626 9.09864299 4.109375 10.86328125 C3.1181665 11.41298584 2.12695801 11.96269043 1.10571289 12.52905273 C0.03957764 13.11759033 -1.02655762 13.70612793 -2.125 14.3125 C-11.73194583 19.65309137 -21.26725401 25.10012511 -30.74951172 30.65942383 C-39.46475083 35.76848049 -48.21281727 40.81881532 -56.97241211 45.85131836 C-62.67359611 49.13203929 -68.32925495 52.46482422 -73.91845703 55.93359375 C-75.875 57 -75.875 57 -77.875 57 C-78.205 57.66 -78.535 58.32 -78.875 59 C-83.825 50.09 -88.775 41.18 -93.875 32 C-90.61166207 28.73666207 -88.41686425 26.95569082 -84.53515625 24.75 C-82.95553101 23.84580322 -82.95553101 23.84580322 -81.34399414 22.92333984 C-80.21985107 22.2886377 -79.09570801 21.65393555 -77.9375 21 C-76.76849015 20.33468922 -75.59979217 19.66883017 -74.43139648 19.00244141 C-72.05876251 17.65009574 -69.68425189 16.30112654 -67.30859375 14.95410156 C-64.15483495 13.15925761 -61.01245838 11.34658374 -57.875 9.5234375 C-56.49235962 8.72292969 -56.49235962 8.72292969 -55.08178711 7.90625 C-53.38284984 6.92243184 -51.68559697 5.93569598 -49.99047852 4.9453125 C-32.27314501 -5.25318982 -19.5197513 -7.64265395 0 0 Z " fill="#EFC9BA" transform="translate(223.875,360)"/>
<path d="M0 0 C2.78758874 1.33065592 3.51066105 3.04895392 4.96606445 5.75170898 C5.52293945 6.76813477 6.07981445 7.78456055 6.65356445 8.83178711 C7.24137695 9.93458008 7.82918945 11.03737305 8.43481445 12.17358398 C9.69432321 14.48137139 10.95475368 16.78865597 12.21606445 19.09545898 C12.84383789 20.25239258 13.47161133 21.40932617 14.1184082 22.60131836 C16.65838072 27.24701003 19.28992708 31.83708443 21.93481445 36.42358398 C26.31900072 44.06216287 30.6399778 51.73444095 34.93481445 59.42358398 C39.48516483 67.56757672 44.05997219 75.69662927 48.68481445 83.79858398 C49.18625977 84.67836914 49.68770508 85.5581543 50.2043457 86.46459961 C50.66711914 87.27348633 51.12989258 88.08237305 51.60668945 88.91577148 C52.00984375 89.62072754 52.41299805 90.32568359 52.82836914 91.05200195 C53.80847335 92.70987461 54.8665094 94.3211264 55.93481445 95.92358398 C55.80322266 97.94555664 55.80322266 97.94555664 54.93481445 99.92358398 C52.26258965 102.12712516 49.15989236 103.64685688 46.12231445 105.29858398 C45.30182617 105.77424805 44.48133789 106.24991211 43.63598633 106.73999023 C42.8412793 107.17956055 42.04657227 107.61913086 41.2277832 108.07202148 C40.50099365 108.47598145 39.7742041 108.87994141 39.02539062 109.29614258 C36.93481445 109.92358398 36.93481445 109.92358398 34.82861328 109.30615234 C32.54312869 107.63763368 31.64763693 106.15996112 30.34106445 103.65405273 C29.87458496 102.77644287 29.40810547 101.89883301 28.92749023 100.99462891 C28.18861572 99.56727417 28.18861572 99.56727417 27.43481445 98.11108398 C26.3611821 96.0892467 25.28561377 94.06843644 24.20825195 92.04858398 C23.66265625 91.02120117 23.11706055 89.99381836 22.55493164 88.93530273 C20.13969782 84.44550099 17.60758827 80.0266284 15.05981445 75.61108398 C10.63119363 67.91132278 6.26495529 60.1791575 1.93481445 52.42358398 C-2.59222139 44.31977013 -7.14662295 36.23277366 -11.75268555 28.17358398 C-12.24575195 27.31055664 -12.73881836 26.4475293 -13.24682617 25.55834961 C-13.93615234 24.3546875 -13.93615234 24.3546875 -14.6394043 23.12670898 C-15.06012207 22.38743164 -15.48083984 21.6481543 -15.91430664 20.88647461 C-16.87143235 19.25404128 -17.9065335 17.66763364 -18.9597168 16.09545898 C-20.06518555 13.92358398 -20.06518555 13.92358398 -19.86401367 11.95117188 C-18.84150605 9.35584004 -17.7706907 8.72319746 -15.3894043 7.31030273 C-14.64368164 6.86750977 -13.89795898 6.4247168 -13.12963867 5.96850586 C-11.95304687 5.29658203 -11.95304687 5.29658203 -10.75268555 4.61108398 C-9.97989258 4.14379883 -9.20709961 3.67651367 -8.41088867 3.19506836 C-7.66129883 2.7587207 -6.91170898 2.32237305 -6.1394043 1.87280273 C-5.11206177 1.27471802 -5.11206177 1.27471802 -4.06396484 0.66455078 C-2.06518555 -0.07641602 -2.06518555 -0.07641602 0 0 Z " fill="#CECED3" transform="translate(103.065185546875,378.076416015625)"/>
<path d="M0 0 C2.81906724 1.0860341 3.5157643 3.19971815 4.71484375 5.83984375 C6.24621534 8.27497562 7.95404911 9.25507983 10.40625 10.734375 C14.96243363 13.55665679 16.86451227 15.76318749 18.90625 20.734375 C19.46875 23.859375 19.46875 23.859375 18.90625 26.734375 C16.45030875 30.05711904 14.9805856 31.51055508 10.90625 32.359375 C6.35158685 31.41048684 4.26340085 28.52334657 1.53125 24.921875 C-1.14560981 22.96570822 -3.90204261 23.55371232 -7.09375 23.734375 C-7.42375 25.054375 -7.75375 26.374375 -8.09375 27.734375 C-5.1310071 28.74100426 -2.17665407 29.71105132 0.8359375 30.55859375 C8.4186558 32.78111463 14.7103039 35.74070921 19.09375 42.58984375 C20.98856358 47.59105844 20.74474311 53.79434221 19.2890625 58.8984375 C16.89424362 63.70926834 12.70127471 66.59778288 7.90625 68.734375 C6.91625 68.734375 5.92625 68.734375 4.90625 68.734375 C4.844375 69.476875 4.7825 70.219375 4.71875 70.984375 C3.62495282 74.68645776 2.22246484 75.81833976 -1.09375 77.734375 C-4.79805594 77.734375 -6.52500165 77.16841979 -9.46875 74.921875 C-11.09375 72.734375 -11.09375 72.734375 -11.09375 68.734375 C-11.83367187 68.63382812 -12.57359375 68.53328125 -13.3359375 68.4296875 C-18.44217071 67.14228026 -22.36742549 63.25447574 -25.30859375 58.9609375 C-27.40588084 54.68904397 -27.39299188 51.2384135 -26.09375 46.734375 C-23.86149103 44.171411 -22.51323631 43.79685169 -19.15625 43.296875 C-15.31506244 43.84561608 -13.74697687 44.92953517 -11.09375 47.734375 C-10.28125 50.484375 -10.28125 50.484375 -10.09375 52.734375 C-8.49054026 52.92988838 -6.88612014 53.11549483 -5.28125 53.296875 C-4.38792969 53.40128906 -3.49460937 53.50570312 -2.57421875 53.61328125 C0.04000572 53.89096209 0.04000572 53.89096209 2.90625 52.734375 C3.63948796 50.71929142 3.63948796 50.71929142 3.90625 48.734375 C2.8440625 48.50363281 1.781875 48.27289063 0.6875 48.03515625 C-16.69257968 44.09484977 -16.69257968 44.09484977 -22.53125 36.609375 C-25.39859267 31.33346448 -25.84708414 26.63841229 -25.09375 20.734375 C-22.88983571 14.78174668 -19.29317767 11.94934904 -13.88671875 8.95703125 C-11.19717292 7.12298365 -10.33298742 4.669411 -9.09375 1.734375 C-5.73383271 -0.50556986 -3.94883219 -0.60090925 0 0 Z " fill="#040300" transform="translate(296.09375,84.265625)"/>
<path d="M0 0 C5.47591561 4.48029459 5.47591561 4.48029459 6.06640625 8.29296875 C6.35093625 13.77246584 5.40852484 16.96429948 1.75 21.25 C-2.70193722 24.21795815 -7.02809146 23.88458039 -12.25 23.25 C-15.70658479 21.20426614 -17.0285359 19.58219615 -19.25 16.25 C-19.91100598 12.20742659 -20.16928345 8.04827957 -18.26953125 4.33203125 C-13.29138302 -1.87150732 -7.28167877 -3.92090395 0 0 Z " fill="#FADC74" transform="translate(321.25,290.75)"/>
<path d="M0 0 C3.43403788 2.00011167 6.21175747 4.42351494 8 8 C8.38893819 12.66725826 8.45147837 15.07967871 6.375 19.3125 C2.80635297 23.35070586 -0.17079706 24.77134963 -5.5 25.4375 C-9.70552222 24.91180972 -11.76772984 23.70608664 -15 21 C-17.73590116 16.59632347 -17.80025935 12.03133353 -17 7 C-13.18186664 -0.08270835 -7.50178818 -1.22044017 0 0 Z " fill="#F9626C" transform="translate(107,310)"/>
<path d="M0 0 C4.11092959 1.77517414 6.73298981 4.13768634 9 8 C9.8724952 12.76787779 9.4529713 16.11023495 7.25 20.4375 C4.55382446 23.50814437 2.65255719 24.7689107 -1.40234375 25.3359375 C-5.6046892 25.40068859 -8.27508514 25.40776461 -12 23.3125 C-15.51400291 19.24943414 -16.56391887 15.49352461 -16.4609375 10.06640625 C-15.59891919 6.20193435 -12.88597483 3.57943346 -10 1 C-6.80436932 -0.59781534 -3.4765367 -0.36841911 0 0 Z " fill="#BEE854" transform="translate(220,244)"/>
<path d="M0 0 C3.49879934 0.77255437 6.94576986 1.69623545 10.3984375 2.65234375 C11.35521393 2.91253799 12.31199036 3.17273224 13.29776001 3.44081116 C15.30373513 3.98809927 17.30880368 4.53872018 19.31298828 5.0925293 C22.38457742 5.94014292 25.45956036 6.7744786 28.53515625 7.60742188 C30.48979792 8.14244583 32.44423268 8.67822637 34.3984375 9.21484375 C35.31716644 9.46386948 36.23589539 9.7128952 37.1824646 9.96946716 C38.4599205 10.32477257 38.4599205 10.32477257 39.76318359 10.68725586 C40.88495499 10.99583778 40.88495499 10.99583778 42.02938843 11.31065369 C44 12 44 12 47 14 C42.96690541 16.9331597 39.85231796 17.49821664 35 17 C31.34946022 16.26791343 27.77622958 15.3001552 24.1875 14.3125 C23.17937256 14.04429443 22.17124512 13.77608887 21.13256836 13.49975586 C16.32662242 12.21359354 11.54036695 10.87713248 6.7734375 9.453125 C5.57424683 9.10060669 5.57424683 9.10060669 4.35083008 8.7409668 C2.87505663 8.30341485 1.40309369 7.85269234 -0.0637207 7.38598633 C-5.16944273 5.87192657 -8.86028265 6.07542515 -14 7 C-13.63386699 4.43706896 -12.91843422 2.87425275 -11.5 0.6875 C-7.68377944 -1.88844888 -4.39539063 -0.76460031 0 0 Z " fill="#E8C4B5" transform="translate(237,381)"/>
<path d="M0 0 C3.375 0.875 3.375 0.875 5.375 2.875 C5.92521834 8.92740175 5.92521834 8.92740175 4.25 11.8125 C1.43987736 13.40490283 -0.45264724 13.32819325 -3.625 12.875 C-6.4162125 10.89177007 -7.45097224 9.74513879 -8.125 6.375 C-7.12928094 1.39640472 -5.01830468 -0.17304499 0 0 Z " fill="#080808" transform="translate(100.625,389.125)"/>
<path d="M0 0 C7.39393019 2.15928935 14.70417741 4.5304518 22 7 C21.67 8.65 21.34 10.3 21 12 C19.58566794 12.2236337 18.16832382 12.42826476 16.75 12.625 C15.96109375 12.74101562 15.1721875 12.85703125 14.359375 12.9765625 C11.61462283 13.00382825 10.26637302 12.52572824 8 11 C7.525625 10.030625 7.05125 9.06125 6.5625 8.0625 C4.79589218 4.59994867 3.33761978 3.8041188 0 2 C0 1.34 0 0.68 0 0 Z " fill="#EEB634" transform="translate(278,126)"/>
</svg>
