<?xml version="1.0" encoding="UTF-8"?>
<svg version="1.1" xmlns="http://www.w3.org/2000/svg" width="512" height="512">
<path d="M0 0 C27.67372674 10.01956716 27.67372674 10.01956716 56.04495239 17.73803711 C57.16973999 17.99198242 58.29452759 18.24592773 59.45339966 18.50756836 C61.56991532 18.97266107 63.69136027 19.41617516 65.81814575 19.83178711 C76.10380442 22.04060232 83.76503592 27.3579714 89.85354614 35.94506836 C95.06426212 44.19536866 95.02081228 52.64917252 94.25979614 62.17163086 C93.53737891 65.16094355 92.64055446 67.41011422 91.25979614 70.17163086 C99.40610157 67.25608686 106.73741277 63.26549943 114.19729614 58.92163086 C115.42867439 58.21102737 116.66028738 57.50083054 117.89212036 56.79101562 C127.38470195 51.3091993 136.81518981 45.72240259 146.23416138 40.11523438 C156.17491418 34.20155633 166.18309123 28.41020793 176.21682739 22.65600586 C180.02579828 20.46914053 183.81513071 18.25497197 187.58401489 15.99975586 C196.89259211 10.44796244 205.96335102 5.64712439 216.25979614 2.17163086 C217.74286255 1.6650293 217.74286255 1.6650293 219.25588989 1.14819336 C230.30099183 -2.11887885 244.66256537 -2.98168429 255.25979614 2.17163086 C263.0512833 6.80440701 269.44237737 13.37166513 272.56057739 21.97631836 C274.85383582 32.45612505 274.44501507 43.57073062 270.13479614 53.43334961 C264.47795452 61.69469539 256.88484377 66.64516039 248.38479614 71.67163086 C247.2356196 72.36311245 246.0871975 73.05584922 244.93948364 73.74975586 C242.56246986 75.18558567 240.18235294 76.61604789 237.79983521 78.04272461 C232.25572698 81.36881072 226.76074913 84.77484468 221.25979614 88.17163086 C219.09335332 89.50532787 216.92668603 90.83866033 214.75979614 92.17163086 C213.68729614 92.83163086 212.61479614 93.49163086 211.50979614 94.17163086 C175.75979614 116.17163086 175.75979614 116.17163086 172.50857544 118.17236328 C170.34595542 119.50321887 168.1833577 120.83411069 166.02078247 122.16503906 C160.54238606 125.53658211 155.06358123 128.90745825 149.58401489 132.27709961 C147.37175409 133.6377422 145.15951436 134.99841905 142.94729614 136.35913086 C141.8662561 137.02396484 140.78521606 137.68879883 139.67141724 138.3737793 C133.7703907 142.00476727 127.87658853 145.64697406 121.9914856 149.30371094 C118.5956913 151.41141243 115.19450056 153.51028644 111.79202271 155.60717773 C110.06772146 156.6724807 108.34580307 157.74164805 106.62600708 158.81420898 C85.92795714 171.70957367 67.37296462 179.10744933 42.50369263 174.47143555 C38.43964414 173.51218944 34.41365705 172.45474581 30.38479614 171.35913086 C28.79378105 170.93874765 27.20245693 170.51953275 25.61087036 170.10131836 C20.72246293 168.81000521 15.84099144 167.49384235 10.96047974 166.17303467 C6.76265628 165.03710497 2.56398565 163.90433584 -1.63473511 162.77172852 C-27.76294017 155.72131426 -27.76294017 155.72131426 -39.14843369 152.62352276 C-42.3518439 151.75200875 -45.5556318 150.88188752 -48.75942993 150.01180077 C-50.26376881 149.60276909 -51.76790469 149.19298998 -53.27182007 148.78240395 C-57.75597258 147.55820826 -62.24430588 146.35218564 -66.74020386 145.17163086 C-67.68055984 144.92353668 -68.62091583 144.6754425 -69.58976746 144.41983032 C-74.41303241 143.23130122 -74.41303241 143.23130122 -79.17379761 144.50756836 C-80.16508667 145.18045898 -81.15637573 145.85334961 -82.17770386 146.54663086 C-87.65719227 150.17163086 -87.65719227 150.17163086 -89.74020386 150.17163086 C-88.78307495 151.83838867 -88.78307495 151.83838867 -87.80661011 153.53881836 C-78.41140775 170.27990868 -78.41140775 170.27990868 -80.20114136 179.56225586 C-82.44711457 187.54206655 -87.05455199 192.18717376 -94.17770386 196.18725586 C-95.08153809 196.70011139 -95.08153809 196.70011139 -96.00363159 197.22332764 C-97.26782996 197.93790836 -98.53522527 198.6468605 -99.80563354 199.3503418 C-101.74122528 200.42219648 -103.66707197 201.51003723 -105.59176636 202.60131836 C-115.4973797 208.17923967 -122.19460909 211.1034317 -133.74020386 210.17163086 C-140.80250033 207.77549455 -144.86557957 202.3918904 -148.60739136 196.15991211 C-148.94793549 195.59460281 -149.28847961 195.02929352 -149.63934326 194.44685364 C-153.19512114 188.50013589 -156.53972604 182.43682157 -159.86520386 176.35913086 C-164.76509171 167.45323361 -169.76940917 158.61874333 -174.92770386 149.85913086 C-179.90128816 141.40542681 -184.68448467 132.87074116 -189.34689331 124.24194336 C-192.68917888 118.06645105 -196.11652345 111.94730843 -199.61520386 105.85913086 C-204.221802 97.84191523 -208.78056878 89.79932772 -213.30270386 81.73413086 C-213.89873413 80.67347412 -214.4947644 79.61281738 -215.1088562 78.52001953 C-216.66373366 75.7431971 -218.20354547 72.95855915 -219.74020386 70.17163086 C-220.35895386 69.07463867 -220.97770386 67.97764648 -221.61520386 66.84741211 C-223.97528153 61.23403293 -223.62429445 54.60234718 -222.11911011 48.76147461 C-217.99485722 39.24819796 -206.661074 34.65596268 -198.11520386 29.92163086 C-197.00918823 29.29772461 -195.90317261 28.67381836 -194.76364136 28.03100586 C-179.3278765 19.42259854 -179.3278765 19.42259854 -170.28317261 21.82397461 C-161.63753824 24.84411375 -158.12253957 29.75217658 -153.56832886 37.41381836 C-153.03626831 38.30697754 -152.50420776 39.20013672 -151.95602417 40.12036133 C-151.55480347 40.79728027 -151.15358276 41.47419922 -150.74020386 42.17163086 C-139.08643828 35.63118511 -127.46316661 29.04391528 -115.92770386 22.29663086 C-114.94672729 21.72404541 -113.96575073 21.15145996 -112.95504761 20.56152344 C-108.76917313 18.11716523 -104.58498139 15.67027136 -100.41061401 13.20629883 C-63.99090412 -8.28995779 -40.25575988 -14.45106063 0 0 Z " fill="#F4DBCC" transform="translate(230.74020385742188,292.828369140625)"/>
<path d="M0 0 C1.29659546 -0.0236412 1.29659546 -0.0236412 2.61938477 -0.04776001 C3.54033936 -0.03763885 4.46129395 -0.0275177 5.41015625 -0.01708984 C6.36784912 -0.02187347 7.32554199 -0.0266571 8.31225586 -0.03158569 C10.3328618 -0.03498136 12.35352293 -0.0258023 14.37402344 -0.00488281 C17.46283736 0.02188756 20.54801755 -0.00464187 23.63671875 -0.03662109 C25.60287259 -0.03331694 27.56902416 -0.02691058 29.53515625 -0.01708984 C30.45611084 -0.027211 31.37706543 -0.03733215 32.32592773 -0.04776001 C33.19032471 -0.03199921 34.05472168 -0.0162384 34.9453125 0 C36.07851929 0.00596695 36.07851929 0.00596695 37.23461914 0.01205444 C40.71146028 0.99841421 42.2011135 2.88262939 44.47265625 5.64697266 C45.08789539 9.0264864 45.08789539 9.0264864 45.07392883 12.96784973 C45.07820096 13.69491062 45.08247308 14.42197152 45.08687466 15.17106456 C45.09509697 17.60222285 45.06763501 20.03164775 45.0402832 22.46264648 C45.03887256 24.20720377 45.03966504 25.95176402 45.04249573 27.69631958 C45.04393064 32.42960375 45.01452868 37.16225472 44.97962594 41.8953917 C44.94837502 46.84280073 44.9454327 51.79022418 44.9394989 56.73771667 C44.92395675 66.10521355 44.8829232 75.47241876 44.83275145 84.83978719 C44.7768696 95.50471341 44.74937439 106.16965355 44.72427428 116.83468974 C44.67200773 138.77228019 44.58405814 160.70960805 44.47265625 182.64697266 C45.6534375 182.60056641 46.83421875 182.55416016 48.05078125 182.50634766 C49.60804759 182.46882317 51.16534133 182.43242373 52.72265625 182.39697266 C53.88861328 182.34669922 53.88861328 182.34669922 55.078125 182.29541016 C60.87352431 182.1963435 60.87352431 182.1963435 63.98632812 184.53759766 C66.0405965 187.4529851 66.04140754 189.2795859 65.8671875 192.74462891 C65.25877518 195.67826061 63.86119111 196.94087633 61.47265625 198.64697266 C58.54410937 199.62315495 56.67165679 199.77403411 53.6224699 199.77840042 C52.61697902 199.78224157 51.61148815 199.78608271 50.57552785 199.79004025 C49.46776598 199.78917377 48.36000411 199.78830729 47.21867371 199.78741455 C46.04428075 199.79038567 44.86988779 199.7933568 43.65990716 199.79641795 C40.39460722 199.8036055 37.12933929 199.80627783 33.86403263 199.80701542 C30.34450431 199.808865 26.82498742 199.81641183 23.3054657 199.82315063 C15.60714047 199.83673832 7.90882045 199.84275931 0.21048522 199.84716129 C-4.59526508 199.8499229 -9.40101337 199.8541601 -14.20676231 199.85866547 C-27.50933233 199.87085856 -40.81190072 199.88115789 -54.1144762 199.88454056 C-55.39181216 199.88486991 -55.39181216 199.88486991 -56.69495289 199.88520591 C-57.97536483 199.88553333 -57.97536483 199.88553333 -59.28164369 199.88586736 C-61.01141155 199.88631083 -62.74117941 199.88675739 -64.47094727 199.88720703 C-65.7579873 199.88753918 -65.7579873 199.88753918 -67.07102814 199.88787803 C-80.97630663 199.89182663 -94.88153275 199.90928236 -108.786791 199.93256655 C-123.05897366 199.9562725 -137.33113003 199.96874206 -151.6033327 199.96990848 C-159.61832862 199.97082565 -167.63325628 199.97658856 -175.64823341 199.99472809 C-182.47277236 200.01011885 -189.29722195 200.01525561 -196.12177495 200.00698999 C-199.60403966 200.00307986 -203.08612437 200.00403056 -206.568367 200.01804733 C-210.3432043 200.03069144 -214.1175767 200.02493061 -217.89241028 200.01446533 C-218.99347998 200.02252174 -220.09454968 200.03057814 -221.22898513 200.03887868 C-226.71278569 200.0032161 -230.84369135 199.85996719 -235.52734375 196.64697266 C-237.09205608 193.517548 -237.22436333 190.03615042 -236.52734375 186.64697266 C-235.04760742 184.53320312 -235.04760742 184.53320312 -232.52734375 182.64697266 C-229.5953217 182.15581573 -226.73964185 182.26924504 -223.77734375 182.39697266 C-222.98457031 182.41501953 -222.19179687 182.43306641 -221.375 182.45166016 C-219.42526027 182.49864184 -217.47614497 182.57038222 -215.52734375 182.64697266 C-215.53844681 181.83122269 -215.54954987 181.01547272 -215.56098938 180.17500305 C-215.66125487 172.48007034 -215.7373402 164.78545518 -215.78640461 157.09003925 C-215.81247757 153.13387963 -215.84783184 149.17826061 -215.90454102 145.22241211 C-215.95894554 141.40334463 -215.98878161 137.58479646 -216.00172997 133.76537132 C-216.01095494 132.30968235 -216.02896993 130.85402119 -216.05599403 129.39855385 C-216.09240118 127.35614686 -216.09728491 125.31587363 -216.0949707 123.27319336 C-216.10607376 122.11181351 -216.11717682 120.95043365 -216.12861633 119.75386047 C-215.33433316 115.64965087 -213.79710897 114.17746829 -210.52734375 111.64697266 C-208.28930664 111.01205444 -208.28930664 111.01205444 -206 111 C-204.70340454 110.9763588 -204.70340454 110.9763588 -203.38061523 110.95223999 C-202.45966064 110.96236115 -201.53870605 110.9724823 -200.58984375 110.98291016 C-199.63215088 110.97812653 -198.67445801 110.9733429 -197.68774414 110.96841431 C-195.6671382 110.96501864 -193.64647707 110.9741977 -191.62597656 110.99511719 C-188.53716264 111.02188756 -185.45198245 110.99535813 -182.36328125 110.96337891 C-180.39712741 110.96668306 -178.43097584 110.97308942 -176.46484375 110.98291016 C-175.54388916 110.972789 -174.62293457 110.96266785 -173.67407227 110.95223999 C-172.37747681 110.9758812 -172.37747681 110.9758812 -171.0546875 111 C-170.29921631 111.00397797 -169.54374512 111.00795593 -168.76538086 111.01205444 C-165.26773886 112.0043153 -163.74237089 113.82109912 -161.52734375 116.64697266 C-160.92607117 119.75386047 -160.92607117 119.75386047 -160.9597168 123.27319336 C-160.95898666 123.91765915 -160.95825653 124.56212494 -160.95750427 125.22612 C-160.96096984 127.34254055 -160.99977348 129.45672114 -161.0390625 131.57275391 C-161.04839451 133.04533181 -161.05550879 134.51792529 -161.0605011 135.99052429 C-161.07954101 139.85591919 -161.12861386 143.72036632 -161.184021 147.58538818 C-161.23527962 151.53352031 -161.25802912 155.48180642 -161.28320312 159.43017578 C-161.3367376 167.16958904 -161.42464654 174.90802701 -161.52734375 182.64697266 C-156.57734375 182.64697266 -151.62734375 182.64697266 -146.52734375 182.64697266 C-146.5362262 181.03973328 -146.54510864 179.4324939 -146.55426025 177.77655029 C-146.63525289 162.64962322 -146.69550456 147.5227756 -146.73459244 132.3956871 C-146.7552231 124.61819504 -146.78335313 116.84086478 -146.82910156 109.06347656 C-146.86895414 102.2851759 -146.8947729 95.50699241 -146.90369773 88.72857785 C-146.90891524 85.13896002 -146.92118814 81.54967739 -146.95026398 77.96016693 C-146.98244999 73.95425 -146.9833042 69.94891687 -146.98144531 65.94287109 C-146.99582642 64.75100693 -147.01020752 63.55914276 -147.02502441 62.3311615 C-147.01952576 61.24023697 -147.0140271 60.14931244 -147.00836182 59.02532959 C-147.01204899 58.0777264 -147.01573616 57.13012321 -147.01953506 56.15380478 C-146.37612495 52.87678404 -145.10289074 51.70789206 -142.52734375 49.64697266 C-138.63698722 48.35018715 -134.93417847 48.48449455 -130.87890625 48.47900391 C-130.02936371 48.47567551 -129.17982117 48.47234711 -128.30453491 48.46891785 C-126.50739076 48.46385608 -124.71023721 48.46150929 -122.91308594 48.46166992 C-120.16976338 48.45948652 -117.426845 48.44133152 -114.68359375 48.42236328 C-112.93619929 48.41942855 -111.18880292 48.41744429 -109.44140625 48.41650391 C-108.62354645 48.40931839 -107.80568665 48.40213287 -106.96304321 48.39472961 C-99.17257899 48.42582714 -99.17257899 48.42582714 -95.52734375 50.64697266 C-92.95827896 54.22352142 -92.15358525 56.6903595 -92.1665802 61.06965637 C-92.16039421 62.6828627 -92.16039421 62.6828627 -92.15408325 64.32865906 C-92.16486908 65.49822647 -92.17565491 66.66779388 -92.18676758 67.87280273 C-92.1863295 69.11223633 -92.18589142 70.35166992 -92.18544006 71.62866211 C-92.18716973 75.01896982 -92.20219569 78.40872682 -92.22316194 81.79893708 C-92.24193926 85.34500134 -92.24368 88.89107326 -92.24723816 92.43717957 C-92.25655555 99.14840938 -92.2811651 105.85949226 -92.31128663 112.57065743 C-92.34484024 120.21268703 -92.36131905 127.85472371 -92.37637293 135.49680865 C-92.407715 151.21361735 -92.46107505 166.93027027 -92.52734375 182.64697266 C-87.90734375 182.64697266 -83.28734375 182.64697266 -78.52734375 182.64697266 C-78.5373365 180.74683159 -78.5373365 180.74683159 -78.54753113 178.80830383 C-78.60832443 166.8750946 -78.65330791 154.94191675 -78.68278027 143.00858784 C-78.69844161 136.87341677 -78.71968875 130.73837064 -78.75366211 124.60327148 C-78.78623838 118.68347634 -78.80419323 112.76380143 -78.81197548 106.84392357 C-78.81752207 104.58446548 -78.82835306 102.32501403 -78.84453392 100.06560707 C-78.86628478 96.90288656 -78.8693116 93.74066403 -78.86791992 90.57788086 C-78.87870575 89.64208191 -78.88949158 88.70628296 -78.90060425 87.74212646 C-78.87755568 82.90707748 -78.74299322 79.54056392 -75.52734375 75.64697266 C-73.20676103 74.48668129 -71.81755601 74.50246953 -69.23291016 74.4699707 C-67.90110214 74.45071785 -67.90110214 74.45071785 -66.54238892 74.43107605 C-65.58093964 74.42368912 -64.61949036 74.41630219 -63.62890625 74.40869141 C-62.64240082 74.40061966 -61.65589539 74.39254791 -60.63949585 74.38423157 C-58.54972087 74.37038728 -56.45992324 74.35966667 -54.37011719 74.35180664 C-51.17209159 74.33457904 -47.9750957 74.29069405 -44.77734375 74.24658203 C-42.74870553 74.23645657 -40.72005851 74.22794001 -38.69140625 74.22119141 C-37.25530502 74.19492928 -37.25530502 74.19492928 -35.79019165 74.1681366 C-34.44892715 74.17252495 -34.44892715 74.17252495 -33.08056641 74.17700195 C-32.2960611 74.17113571 -31.51155579 74.16526947 -30.70327759 74.15922546 C-27.41713301 74.89583232 -26.41665171 75.83470068 -24.52734375 78.64697266 C-23.95018888 81.98097706 -24.02257298 85.27227294 -24.07324219 88.64794922 C-24.07265808 89.66290466 -24.07207397 90.67786011 -24.07147217 91.72357178 C-24.07425905 95.07859488 -24.10538062 98.43272974 -24.13671875 101.78759766 C-24.14417896 104.11358149 -24.14987293 106.4395716 -24.15386963 108.76556396 C-24.1691431 114.88791249 -24.20844022 121.00988151 -24.25268555 127.13208008 C-24.29360099 133.37917955 -24.31187271 139.62634032 -24.33203125 145.87353516 C-24.37493237 158.1315144 -24.44320484 170.38921197 -24.52734375 182.64697266 C-19.57734375 182.64697266 -14.62734375 182.64697266 -9.52734375 182.64697266 C-9.53844681 180.44060623 -9.54954987 178.23423981 -9.56098938 175.96101379 C-9.66309022 155.19813995 -9.73753883 134.43529915 -9.78640461 113.67223072 C-9.8121961 102.99696257 -9.84736478 92.32187851 -9.90454102 81.64672852 C-9.95434694 72.34323384 -9.98662789 63.03987248 -9.99778622 53.7362482 C-10.00430973 48.80909804 -10.01966151 43.8823293 -10.05599403 38.95530128 C-10.08990906 34.31858084 -10.10040581 29.68239926 -10.09288216 25.04556656 C-10.09425872 23.34316391 -10.10421815 21.64074341 -10.12337112 19.93844795 C-10.14824051 17.61425221 -10.14227331 15.2920923 -10.12861633 12.96784973 C-10.13552978 11.01687488 -10.13552978 11.01687488 -10.14258289 9.0264864 C-9.13502639 3.49197014 -5.71537467 0.03009455 0 0 Z " fill="#242323" transform="translate(428.52734375,70.35302734375)"/>
<path d="M0 0 C27.67372674 10.01956716 27.67372674 10.01956716 56.04495239 17.73803711 C57.16973999 17.99198242 58.29452759 18.24592773 59.45339966 18.50756836 C61.56991532 18.97266107 63.69136027 19.41617516 65.81814575 19.83178711 C76.10380442 22.04060232 83.76503592 27.3579714 89.85354614 35.94506836 C95.06426212 44.19536866 95.02081228 52.64917252 94.25979614 62.17163086 C93.53737891 65.16094355 92.64055446 67.41011422 91.25979614 70.17163086 C99.40610157 67.25608686 106.73741277 63.26549943 114.19729614 58.92163086 C115.42867439 58.21102737 116.66028738 57.50083054 117.89212036 56.79101562 C127.38470195 51.3091993 136.81518981 45.72240259 146.23416138 40.11523438 C156.17491418 34.20155633 166.18309123 28.41020793 176.21682739 22.65600586 C180.02579828 20.46914053 183.81513071 18.25497197 187.58401489 15.99975586 C196.89259211 10.44796244 205.96335102 5.64712439 216.25979614 2.17163086 C217.74286255 1.6650293 217.74286255 1.6650293 219.25588989 1.14819336 C230.30099183 -2.11887885 244.66256537 -2.98168429 255.25979614 2.17163086 C263.0512833 6.80440701 269.44237737 13.37166513 272.56057739 21.97631836 C274.85383582 32.45612505 274.44501507 43.57073062 270.13479614 53.43334961 C264.47795452 61.69469539 256.88484377 66.64516039 248.38479614 71.67163086 C247.2356196 72.36311245 246.0871975 73.05584922 244.93948364 73.74975586 C242.56246986 75.18558567 240.18235294 76.61604789 237.79983521 78.04272461 C232.25572698 81.36881072 226.76074913 84.77484468 221.25979614 88.17163086 C219.09335332 89.50532787 216.92668603 90.83866033 214.75979614 92.17163086 C213.68729614 92.83163086 212.61479614 93.49163086 211.50979614 94.17163086 C175.75979614 116.17163086 175.75979614 116.17163086 172.50857544 118.17236328 C170.34595542 119.50321887 168.1833577 120.83411069 166.02078247 122.16503906 C160.54238606 125.53658211 155.06358123 128.90745825 149.58401489 132.27709961 C147.37175409 133.6377422 145.15951436 134.99841905 142.94729614 136.35913086 C141.8662561 137.02396484 140.78521606 137.68879883 139.67141724 138.3737793 C133.7703907 142.00476727 127.87658853 145.64697406 121.9914856 149.30371094 C118.5956913 151.41141243 115.19450056 153.51028644 111.79202271 155.60717773 C110.06772146 156.6724807 108.34580307 157.74164805 106.62600708 158.81420898 C85.92795714 171.70957367 67.37296462 179.10744933 42.50369263 174.47143555 C38.43964414 173.51218944 34.41365705 172.45474581 30.38479614 171.35913086 C28.79378105 170.93874765 27.20245693 170.51953275 25.61087036 170.10131836 C20.72246293 168.81000521 15.84099144 167.49384235 10.96047974 166.17303467 C6.76265628 165.03710497 2.56398565 163.90433584 -1.63473511 162.77172852 C-27.76294017 155.72131426 -27.76294017 155.72131426 -39.14843369 152.62352276 C-42.3518439 151.75200875 -45.5556318 150.88188752 -48.75942993 150.01180077 C-50.26376881 149.60276909 -51.76790469 149.19298998 -53.27182007 148.78240395 C-57.75597258 147.55820826 -62.24430588 146.35218564 -66.74020386 145.17163086 C-67.68055984 144.92353668 -68.62091583 144.6754425 -69.58976746 144.41983032 C-74.41303241 143.23130122 -74.41303241 143.23130122 -79.17379761 144.50756836 C-80.16508667 145.18045898 -81.15637573 145.85334961 -82.17770386 146.54663086 C-87.65719227 150.17163086 -87.65719227 150.17163086 -89.74020386 150.17163086 C-88.78307495 151.83838867 -88.78307495 151.83838867 -87.80661011 153.53881836 C-78.41140775 170.27990868 -78.41140775 170.27990868 -80.20114136 179.56225586 C-82.44711457 187.54206655 -87.05455199 192.18717376 -94.17770386 196.18725586 C-95.08153809 196.70011139 -95.08153809 196.70011139 -96.00363159 197.22332764 C-97.26782996 197.93790836 -98.53522527 198.6468605 -99.80563354 199.3503418 C-101.74122528 200.42219648 -103.66707197 201.51003723 -105.59176636 202.60131836 C-115.4973797 208.17923967 -122.19460909 211.1034317 -133.74020386 210.17163086 C-140.80250033 207.77549455 -144.86557957 202.3918904 -148.60739136 196.15991211 C-148.94793549 195.59460281 -149.28847961 195.02929352 -149.63934326 194.44685364 C-153.19512114 188.50013589 -156.53972604 182.43682157 -159.86520386 176.35913086 C-164.76509171 167.45323361 -169.76940917 158.61874333 -174.92770386 149.85913086 C-179.90128816 141.40542681 -184.68448467 132.87074116 -189.34689331 124.24194336 C-192.68917888 118.06645105 -196.11652345 111.94730843 -199.61520386 105.85913086 C-204.221802 97.84191523 -208.78056878 89.79932772 -213.30270386 81.73413086 C-213.89873413 80.67347412 -214.4947644 79.61281738 -215.1088562 78.52001953 C-216.66373366 75.7431971 -218.20354547 72.95855915 -219.74020386 70.17163086 C-220.35895386 69.07463867 -220.97770386 67.97764648 -221.61520386 66.84741211 C-223.97528153 61.23403293 -223.62429445 54.60234718 -222.11911011 48.76147461 C-217.99485722 39.24819796 -206.661074 34.65596268 -198.11520386 29.92163086 C-197.00918823 29.29772461 -195.90317261 28.67381836 -194.76364136 28.03100586 C-179.3278765 19.42259854 -179.3278765 19.42259854 -170.28317261 21.82397461 C-161.63753824 24.84411375 -158.12253957 29.75217658 -153.56832886 37.41381836 C-153.03626831 38.30697754 -152.50420776 39.20013672 -151.95602417 40.12036133 C-151.55480347 40.79728027 -151.15358276 41.47419922 -150.74020386 42.17163086 C-139.08643828 35.63118511 -127.46316661 29.04391528 -115.92770386 22.29663086 C-114.94672729 21.72404541 -113.96575073 21.15145996 -112.95504761 20.56152344 C-108.76917313 18.11716523 -104.58498139 15.67027136 -100.41061401 13.20629883 C-63.99090412 -8.28995779 -40.25575988 -14.45106063 0 0 Z M-99.05270386 31.40209961 C-104.99468328 34.93113934 -110.99751718 38.35470787 -116.99020386 41.79663086 C-125.66287489 46.78394621 -134.28860033 51.81666749 -142.74020386 57.17163086 C-142.16096379 60.97168176 -141.08436145 63.67492316 -139.10739136 66.96069336 C-138.55623657 67.88825439 -138.00508179 68.81581543 -137.43722534 69.77148438 C-136.83595825 70.76978271 -136.23469116 71.76808105 -135.61520386 72.79663086 C-130.33240117 81.70364223 -125.1830067 90.6681806 -120.17770386 99.73413086 C-113.4417021 111.92379987 -106.6156346 124.06011946 -99.74020386 136.17163086 C-96.82065963 135.5658164 -94.67347814 134.67167025 -92.16598511 133.07006836 C-91.4976062 132.66272461 -90.82922729 132.25538086 -90.14059448 131.83569336 C-88.75924119 130.98284661 -87.38655587 130.11578249 -86.02340698 129.23413086 C-80.54493397 125.94809356 -76.90179105 125.78532058 -70.74020386 127.17163086 C-69.87500122 127.35822266 -69.00979858 127.54481445 -68.11837769 127.73706055 C-65.22899971 128.39845065 -62.36052954 129.11954205 -59.49020386 129.85913086 C-58.44316284 130.12459717 -57.39612183 130.39006348 -56.31735229 130.66357422 C-48.63454125 132.63184497 -41.00879395 134.77076892 -33.39547729 136.99072266 C-26.72179106 138.92593993 -20.00836329 140.62978675 -13.25875854 142.27734375 C-7.20890128 143.76843048 -1.22263472 145.43085515 4.75979614 147.17163086 C13.40574044 149.68685856 22.09697291 151.93108501 30.84182739 154.07397461 C34.43842689 154.95768434 38.00783775 155.91502392 41.57229614 156.92163086 C57.35796654 161.24012183 72.28607846 159.69666911 86.61990356 151.88549805 C89.02495969 150.43402558 91.39585256 148.93912937 93.75979614 147.42163086 C95.6096618 146.25563976 97.45994144 145.09030524 99.31057739 143.92553711 C100.27817993 143.31339355 101.24578247 142.70125 102.2427063 142.07055664 C107.45197521 138.79189556 112.70141896 135.57876436 117.94729614 132.35913086 C120.15964922 130.99863832 122.37188788 129.63795969 124.58401489 128.27709961 C125.68793579 127.59824707 126.79185669 126.91939453 127.92922974 126.2199707 C133.37347182 122.87169398 138.81658504 119.52158327 144.25979614 116.17163086 C146.42645722 114.83828844 148.59312389 113.50495512 150.75979614 112.17163086 C151.83229614 111.51163086 152.90479614 110.85163086 154.00979614 110.17163086 C163.75979614 104.17163086 163.75979614 104.17163086 167.01101685 102.17089844 C169.17363686 100.84004285 171.33623459 99.50915103 173.49880981 98.17822266 C178.97720622 94.80667961 184.45601106 91.43580347 189.93557739 88.06616211 C206.28525141 78.01484526 206.28525141 78.01484526 222.60256958 67.91113281 C227.08049351 65.12872083 231.57269398 62.3736371 236.08792114 59.65209961 C237.52687744 58.77847778 237.52687744 58.77847778 238.99490356 57.88720703 C240.82902723 56.77431635 242.66750484 55.66855785 244.51101685 54.57128906 C249.91351931 51.28003671 253.774921 48.36411242 256.50979614 42.48413086 C258.06768906 35.60343714 258.21806834 29.19622538 254.66604614 22.92944336 C251.2964922 18.71750093 246.50901187 16.18661593 241.25979614 15.17163086 C219.49575887 12.88991727 197.79638901 28.73881571 180.11184692 39.45532227 C175.23289894 42.3913781 170.3077664 45.24771932 165.38479614 48.10913086 C163.37038907 49.28216344 161.35606645 50.45534105 159.34182739 51.62866211 C158.33974243 52.21212402 157.33765747 52.79558594 156.3052063 53.39672852 C153.25065737 55.17695705 150.19826451 56.96082719 147.14651489 58.74584961 C142.15854258 61.66316184 137.16599213 64.57249351 132.17044067 67.47680664 C130.23236011 68.6053216 128.2958292 69.73650217 126.36087036 70.87036133 C105.64464718 83.00531333 105.64464718 83.00531333 96.25979614 86.17163086 C95.22467896 86.53385742 94.18956177 86.89608398 93.12307739 87.26928711 C88.13424707 88.43452453 83.42875877 88.51361876 78.32229614 88.48413086 C77.29668579 88.47849121 76.27107544 88.47285156 75.21438599 88.46704102 C66.58335737 88.33038419 58.65709185 87.20032993 50.25979614 85.17163086 C48.24435777 84.70597863 46.22871614 84.24120559 44.21292114 83.77709961 C33.13778709 81.1972429 22.1532206 78.4360709 11.25979614 75.17163086 C9.52191275 74.67933875 7.78359468 74.18857976 6.04495239 73.69897461 C4.19976405 73.16950133 2.3547116 72.63955423 0.50979614 72.10913086 C-0.3736145 71.86356445 -1.25702515 71.61799805 -2.16720581 71.36499023 C-2.99051392 71.12458008 -3.81382202 70.88416992 -4.66207886 70.63647461 C-5.76954468 70.32117798 -5.76954468 70.32117798 -6.89938354 69.99951172 C-8.74020386 69.17163086 -8.74020386 69.17163086 -10.74020386 66.17163086 C-11.27769257 60.15175733 -11.27769257 60.15175733 -9.67770386 57.23413086 C-4.31125457 54.29123931 2.18292033 56.78656339 7.64846802 58.35644531 C8.6958313 58.66670654 9.74319458 58.97696777 10.82229614 59.29663086 C13.05257056 59.93923279 15.28304352 60.58114601 17.51370239 61.22241211 C18.63663696 61.54806152 19.75957153 61.87371094 20.91653442 62.20922852 C26.01905292 63.67805632 31.13751485 65.08605978 36.25979614 66.48413086 C37.13579468 66.72599121 38.01179321 66.96785156 38.91433716 67.21704102 C55.39595283 72.24955429 55.39595283 72.24955429 71.56838989 68.51538086 C75.26638584 65.57748107 76.78963789 61.58210562 78.25979614 57.17163086 C78.7622257 51.04199023 78.37054958 48.03962835 74.25979614 43.17163086 C67.90443517 36.14728452 58.33744387 35.08745368 49.45120239 33.08178711 C35.81290146 29.93419865 22.67414961 25.78034215 9.44729614 21.23413086 C8.58905243 20.93943909 7.73080872 20.64474731 6.84655762 20.34112549 C4.30960756 19.46732249 1.77444948 18.58857674 -0.75973511 17.70678711 C-1.58579254 17.41966858 -2.41184998 17.13255005 -3.26293945 16.83673096 C-7.48619689 15.35611352 -11.67970535 13.82215328 -15.849823 12.19750977 C-27.82289948 7.48163285 -27.82289948 7.48163285 -40.55270386 6.42163086 C-41.87346924 6.46271973 -41.87346924 6.46271973 -43.22091675 6.50463867 C-63.5823563 7.54069252 -81.98630413 21.24013538 -99.05270386 31.40209961 Z " fill="#252323" transform="translate(230.74020385742188,292.828369140625)"/>
<path d="M0 0 C1.27922927 1.07340623 2.55013137 2.15681479 3.8125 3.25 C5.0190625 4.16265625 5.0190625 4.16265625 6.25 5.09375 C19.46868426 16.21678919 28.76050838 35.23913195 30.8125 52.25 C32.66014107 74.94546615 28.45747983 96.6082062 13.44140625 114.37890625 C12.63509766 115.30509766 12.63509766 115.30509766 11.8125 116.25 C11.36777344 116.83652344 10.92304688 117.42304688 10.46484375 118.02734375 C-0.67135586 132.34531468 -19.62788514 141.08314703 -37.26318359 143.5390625 C-59.16929261 146.03743686 -80.7359686 141.04513721 -98.3125 127.4375 C-99.95390995 126.06100115 -101.57922583 124.6650724 -103.1875 123.25 C-104.34765625 122.23292969 -104.34765625 122.23292969 -105.53125 121.1953125 C-120.06479043 107.60744764 -128.38136143 87.68736204 -129.34765625 67.984375 C-129.88440183 45.67442836 -122.94546676 24.8843818 -107.43579102 8.47753906 C-79.01647432 -20.60984546 -32.70164905 -25.21768957 0 0 Z " fill="#FCC137" transform="translate(173.1875,24.75)"/>
<path d="M0 0 C1.27922927 1.07340623 2.55013137 2.15681479 3.8125 3.25 C5.0190625 4.16265625 5.0190625 4.16265625 6.25 5.09375 C19.46868426 16.21678919 28.76050838 35.23913195 30.8125 52.25 C32.66014107 74.94546615 28.45747983 96.6082062 13.44140625 114.37890625 C12.63509766 115.30509766 12.63509766 115.30509766 11.8125 116.25 C11.36777344 116.83652344 10.92304688 117.42304688 10.46484375 118.02734375 C-0.67135586 132.34531468 -19.62788514 141.08314703 -37.26318359 143.5390625 C-59.16929261 146.03743686 -80.7359686 141.04513721 -98.3125 127.4375 C-99.95390995 126.06100115 -101.57922583 124.6650724 -103.1875 123.25 C-104.34765625 122.23292969 -104.34765625 122.23292969 -105.53125 121.1953125 C-120.06479043 107.60744764 -128.38136143 87.68736204 -129.34765625 67.984375 C-129.88440183 45.67442836 -122.94546676 24.8843818 -107.43579102 8.47753906 C-79.01647432 -20.60984546 -32.70164905 -25.21768957 0 0 Z M-97.46484375 21.90234375 C-109.95253616 37.71454661 -113.74124423 53.52133267 -112.1875 73.25 C-109.85611266 90.10398767 -100.60594037 104.72443267 -87.3125 115.125 C-71.63822582 126.2358779 -54.97765201 128.86899812 -36.1875 126.75 C-20.35336517 123.70414323 -5.70097232 112.9288324 3.8125 100.25 C12.96691125 85.49821697 17.20303285 68.61281005 14.1171875 51.36328125 C10.17376249 34.97652773 0.62043672 19.15744899 -14.00732422 10.12646484 C-41.80657389 -5.7043376 -75.72177683 -3.42105666 -97.46484375 21.90234375 Z " fill="#252222" transform="translate(173.1875,24.75)"/>
<path d="M0 0 C4.28609014 4.10607435 6.89402263 9.9083225 9.75 15.0625 C10.91200909 17.13974339 12.07480467 19.21654696 13.23828125 21.29296875 C13.85010254 22.38657715 14.46192383 23.48018555 15.09228516 24.60693359 C18.00679761 29.79069275 20.96577444 34.94886616 23.92419434 40.1076355 C29.9162631 50.55874616 35.84069118 61.04565432 41.71069336 71.56591797 C45.75886243 78.81061245 49.85813623 86.0248902 53.98388672 93.22555542 C54.99180143 94.98568279 55.99816394 96.74668716 57.00390625 98.50805664 C57.33350342 99.08526962 57.66310059 99.6624826 58.00268555 100.25718689 C58.66696377 101.42061897 59.33118913 102.58408124 59.99536133 103.74757385 C62.02257326 107.29652907 64.06001982 110.83939701 66.10351562 114.3789978 C67.74405012 117.2270445 69.37076174 120.0829807 71 122.9375 C71.60585937 123.97970703 72.21171875 125.02191406 72.8359375 126.09570312 C73.38507813 127.06314453 73.93421875 128.03058594 74.5 129.02734375 C75.22703125 130.29179321 75.22703125 130.29179321 75.96875 131.58178711 C77.16962839 134.39776732 77.58032515 135.98019346 77 139 C72.29504625 143.58404196 66.1767328 146.52538898 60.5 149.75 C59.46746094 150.35199219 58.43492188 150.95398438 57.37109375 151.57421875 C55.87255859 152.42693359 55.87255859 152.42693359 54.34375 153.296875 C53.43818359 153.81604492 52.53261719 154.33521484 51.59960938 154.87011719 C48.74566826 156.11054163 47.06863423 156.52941599 44 156 C42.42773438 154.43774414 42.42773438 154.43774414 41.09375 152.22265625 C40.5884375 151.39652832 40.083125 150.57040039 39.5625 149.71923828 C39.046875 148.82188965 38.53125 147.92454102 38 147 C37.2265625 145.66364502 37.2265625 145.66364502 36.4375 144.30029297 C34.76615746 141.35956987 33.13008875 138.40127653 31.5 135.4375 C26.72856228 126.8322127 21.86657492 118.29192921 16.875 109.8125 C11.88313388 101.3181533 7.07968665 92.74267771 2.39575195 84.07519531 C-2.39994229 75.2149889 -7.40805379 66.48297117 -12.42626953 57.74755859 C-15.26010127 52.80000316 -18.06821617 47.83793527 -20.875 42.875 C-21.39827881 41.95146729 -21.92155762 41.02793457 -22.46069336 40.07641602 C-23.47094351 38.28927336 -24.47603037 36.49920078 -25.47558594 34.70605469 C-26.54465407 32.80830465 -27.63872873 30.92452759 -28.75097656 29.05175781 C-29.31010742 28.08850586 -29.86923828 27.12525391 -30.4453125 26.1328125 C-30.95852051 25.2680127 -31.47172852 24.40321289 -32.00048828 23.51220703 C-33.19398918 20.51242093 -33.00113325 19.03275851 -32 16 C-29.45758419 13.42987394 -26.11287231 11.80585263 -23 10 C-22.30438965 9.58959473 -21.6087793 9.17918945 -20.89208984 8.75634766 C-18.52043571 7.36293215 -16.13766243 5.99078617 -13.75 4.625 C-12.96955322 4.17165283 -12.18910645 3.71830566 -11.38500977 3.2512207 C-3.75175748 -1.02441605 -3.75175748 -1.02441605 0 0 Z " fill="#CFCFD4" transform="translate(57,331)"/>
<path d="M0 0 C-2.39969682 2.65565787 -4.96444189 4.27998553 -8.06640625 6.046875 C-9.09556152 6.63654053 -10.1247168 7.22620605 -11.18505859 7.83374023 C-12.29961426 8.46610596 -13.41416992 9.09847168 -14.5625 9.75 C-15.73547604 10.4201518 -16.90816003 11.09081499 -18.08056641 11.76196289 C-20.51533294 13.15526752 -22.9513422 14.54636289 -25.38818359 15.93603516 C-30.89693018 19.08039763 -36.38427526 22.26181548 -41.875 25.4375 C-51.04787854 30.73410211 -60.23815951 35.99956655 -69.4375 41.25 C-77.21823916 45.69121837 -84.99660481 50.13614812 -92.75 54.625 C-93.47429199 55.04402588 -94.19858398 55.46305176 -94.94482422 55.89477539 C-99.44954742 58.50628799 -103.94017121 61.14094478 -108.42578125 63.78515625 C-109.52631836 64.43210449 -110.62685547 65.07905273 -111.76074219 65.74560547 C-113.92896861 67.0208253 -116.09505924 68.29968491 -118.25878906 69.58251953 C-119.23686523 70.15728027 -120.21494141 70.73204102 -121.22265625 71.32421875 C-122.09672119 71.84072998 -122.97078613 72.35724121 -123.87133789 72.8894043 C-126 74 -126 74 -128 74 C-128.66 75.32 -129.32 76.64 -130 78 C-130.31114746 77.42258057 -130.62229492 76.84516113 -130.94287109 76.25024414 C-132.41698186 73.51921727 -133.89547226 70.79059608 -135.375 68.0625 C-135.91213623 67.07008301 -136.44927246 66.07766602 -137.00268555 65.05517578 C-139.60316713 60.28015687 -142.23732253 55.5431224 -145.05859375 50.89453125 C-145.75686279 49.74295532 -145.75686279 49.74295532 -146.46923828 48.56811523 C-147.34856236 47.13246125 -148.23850623 45.70324505 -149.14013672 44.28149414 C-152.01865598 39.58282146 -152.01865598 39.58282146 -151.93603516 37.00170898 C-150.54174412 34.02002087 -148.54963246 33.21619831 -145.69140625 31.63671875 C-144.56484619 31.00475586 -143.43828613 30.37279297 -142.27758789 29.72167969 C-141.03927335 29.04353198 -139.80090943 28.36547441 -138.5625 27.6875 C-137.29013489 26.97832028 -136.01857838 26.26768802 -134.74780273 25.55566406 C-132.12484827 24.0868788 -129.49893888 22.62358922 -126.87109375 21.16357422 C-121.06218208 17.92730959 -115.31476568 14.58569758 -109.5625 11.25 C-107.42599669 10.01785552 -105.28928113 8.78607901 -103.15234375 7.5546875 C-99.13737538 5.2386263 -95.13041917 2.90953391 -91.12890625 0.5703125 C-57.06625928 -19.25750858 -35.46767891 -14.03878952 0 0 Z " fill="#F0CABB" transform="translate(240,314)"/>
<path d="M0 0 C2.6875 1.9375 2.6875 1.9375 4 5 C3.58009502 12.68270592 1.67437811 19.90231936 -0.3125 27.3125 C-0.75625977 29.06143555 -0.75625977 29.06143555 -1.20898438 30.84570312 C-1.50740234 31.96525391 -1.80582031 33.08480469 -2.11328125 34.23828125 C-2.37923096 35.24930908 -2.64518066 36.26033691 -2.91918945 37.30200195 C-4.14552845 40.36327873 -5.46519619 41.91577472 -8 44 C-11.56687878 45.13836557 -13.24217747 45.33485181 -16.6875 43.8125 C-18.94953304 42.03955518 -20.33586471 40.31636122 -22 38 C-22.59690643 38.59912704 -23.19381287 39.19825409 -23.80880737 39.8155365 C-29.42725801 45.45400219 -35.04809511 51.09007547 -40.67164421 56.72345638 C-43.56286183 59.61989849 -46.45313944 62.51726593 -49.34130859 65.41674805 C-52.12719371 68.21347739 -54.91549566 71.00777577 -57.70550919 73.80038643 C-58.77093552 74.86766423 -59.83547954 75.93582356 -60.89913559 77.00486565 C-62.3860159 78.49897671 -63.87596753 79.9899576 -65.36669922 81.48022461 C-66.21497284 82.33071884 -67.06324646 83.18121307 -67.93722534 84.05747986 C-70.43440825 86.40908335 -71.37276106 86.95000031 -74.79931641 87.22314453 C-78.33554759 86.97660637 -80.15958644 86.18804492 -83.2109375 84.4296875 C-84.19739258 83.86934814 -85.18384766 83.30900879 -86.20019531 82.73168945 C-87.24788086 82.11898193 -88.29556641 81.50627441 -89.375 80.875 C-90.46393555 80.25133545 -91.55287109 79.6276709 -92.67480469 78.98510742 C-95.54459115 77.33706425 -98.40715285 75.6778548 -101.26574707 74.01055908 C-104.10863246 72.35399354 -106.95730068 70.70740636 -109.8046875 69.05859375 C-126.23840546 59.51935506 -126.23840546 59.51935506 -129.55371094 57.25854492 C-131.84054466 55.78777376 -131.84054466 55.78777376 -133.97349739 56.26239014 C-137.44381367 57.52552175 -139.71300911 60.37000254 -142.23388672 62.97265625 C-142.84906158 63.5954245 -143.46423645 64.21819275 -144.09805298 64.85983276 C-145.43267227 66.2125605 -146.76388021 67.56866046 -148.09206772 68.92770386 C-150.19499905 71.07815757 -152.30796828 73.2182553 -154.42410278 75.35571289 C-160.43866196 81.43450629 -166.43482288 87.53129975 -172.42333984 93.63574219 C-176.08727198 97.36917041 -179.76329882 101.09033774 -183.44684219 104.80441284 C-184.84788756 106.222236 -186.24409984 107.64485197 -187.63534164 109.07229614 C-189.58141639 111.06878343 -191.54239839 113.04943207 -193.50732422 115.02734375 C-194.36321136 115.91726517 -194.36321136 115.91726517 -195.23638916 116.82516479 C-198.63828365 120.21110014 -200.97243553 121.91879484 -206 122 C-208.87872577 120.6260627 -210.74989437 119.25010563 -213 117 C-213.57183286 113.11194285 -213.92333049 110.51492796 -211.8459301 107.106493 C-210.12358388 105.09568976 -208.30927732 103.25117554 -206.40991211 101.40649414 C-205.70914551 100.69492157 -205.00837891 99.983349 -204.28637695 99.25021362 C-201.96941902 96.90828319 -199.62472338 94.59656303 -197.27734375 92.28515625 C-195.6561195 90.66362202 -194.0362289 89.04075339 -192.4176178 87.41661072 C-189.02279811 84.01902316 -185.61446016 80.63579854 -182.19555664 77.26245117 C-177.81573085 72.93939525 -173.46772923 68.58591856 -169.12897396 64.22168827 C-165.78844103 60.86723963 -162.43332108 57.5277019 -159.0734272 54.19265556 C-157.46456008 52.59281543 -155.85985037 50.98878311 -154.25941277 49.38051033 C-152.01924259 47.13451346 -149.76061056 44.90890647 -147.49584961 42.68774414 C-146.83841263 42.02130386 -146.18097565 41.35486359 -145.50361633 40.66822815 C-141.50197867 36.79365429 -138.81858047 35.05504269 -133 35 C-130.45556641 35.8293457 -130.45556641 35.8293457 -128.1015625 37.17578125 C-127.21879639 37.66900879 -126.33603027 38.16223633 -125.42651367 38.67041016 C-124.50201416 39.2122998 -123.57751465 39.75418945 -122.625 40.3125 C-121.65473877 40.86212402 -120.68447754 41.41174805 -119.68481445 41.97802734 C-116.77785365 43.63211552 -113.88730713 45.31188742 -111 47 C-109.45964734 47.89194767 -107.91928378 48.78387652 -106.37890625 49.67578125 C-102.94600006 51.67513161 -99.53002385 53.70163793 -96.11914062 55.73828125 C-92.23521876 58.05073611 -88.33511851 60.33573489 -84.4375 62.625 C-82.99863396 63.47124543 -81.55982561 64.31758896 -80.12109375 65.1640625 C-79.09113281 65.76992187 -78.06117188 66.37578125 -77 67 C-71.52686034 62.43852453 -66.46045191 57.59258679 -61.44140625 52.5390625 C-60.65225327 51.74849457 -59.86310028 50.95792664 -59.05003357 50.1434021 C-56.55181339 47.63962374 -54.05710956 45.13237525 -51.5625 42.625 C-49.86025792 40.91773752 -48.15778627 39.21070391 -46.45507812 37.50390625 C-42.30072637 33.33858102 -38.14924919 29.17040781 -34 25 C-34.969375 24.360625 -35.93875 23.72125 -36.9375 23.0625 C-40 21 -40 21 -41 20 C-41.69805003 13.0194997 -41.69805003 13.0194997 -39.26953125 9.47265625 C-34.94518533 5.49591179 -28.84573892 4.58859404 -23.3125 3.1875 C-22.17876953 2.87619141 -21.04503906 2.56488281 -19.87695312 2.24414062 C-13.34319515 0.53067672 -6.77910874 -1.03047797 0 0 Z " fill="#232121" transform="translate(433,17)"/>
<path d="M0 0 C2.75 2.125 2.75 2.125 5 5 C5.061875 5.99 5.12375 6.98 5.1875 8 C5.67326999 11.12086295 5.67326999 11.12086295 8.09765625 12.3515625 C9.88684074 13.21058186 11.68681561 14.04743321 13.49609375 14.86328125 C19.58499253 17.62750831 23.24813074 22.00204822 26 28 C26.77234898 32.55685898 26.56060667 34.18457212 23.9375 38 C21 40 21 40 17.4375 40.125 C13.34267473 38.78487537 12.39101077 37.50681579 10 34 C6.90959915 30.59263496 4.55066983 28.03424314 0 27 C-4.47435683 26.93468092 -8.03058722 27.52518558 -12.0625 29.5 C-14.91105385 33.17555336 -14.4315932 36.51143074 -14 41 C-10.69189837 42.39047398 -7.46807961 43.45982178 -3.98046875 44.296875 C-3.04009766 44.5340625 -2.09972656 44.77125 -1.13085938 45.015625 C0.81671491 45.50154931 2.76726634 45.97570702 4.72070312 46.4375 C13.98290431 48.81469293 20.40334682 53.26345001 26 61 C28.89192537 67.04860447 29.1415197 73.89189616 27.34765625 80.34765625 C23.87299711 88.08734765 17.57956803 92.08291305 10.015625 95.3359375 C8 96 8 96 5 96 C5.1546875 97.3303125 5.1546875 97.3303125 5.3125 98.6875 C5 102 5 102 2.875 104.875 C0 107 0 107 -3 107.6875 C-7.35321372 106.68988852 -8.65945491 104.71733632 -11 101 C-11.3125 97.625 -11.3125 97.625 -11 95 C-11.99 94.95875 -12.98 94.9175 -14 94.875 C-20.15614082 93.99021053 -24.78446887 89.56228252 -28.8125 85.0625 C-32.08625638 80.47924107 -34.03271618 76.962971 -33.9375 71.25 C-33 68 -33 68 -31.3125 66.0625 C-28.24716836 64.65410438 -26.34404315 64.52227955 -23 65 C-19.34834839 67.12305326 -18.18155666 68.51584891 -16.6875 72.5 C-14.71866148 76.58351693 -13.30396799 77.62139816 -9.2421875 79.33984375 C-3.53402032 81.02047137 1.15583885 80.66777856 6.5 78.0625 C8.91156607 76.74415194 8.91156607 76.74415194 11 75 C11.38165808 71.56507726 11.5545264 69.71508271 9.39453125 66.9296875 C6.46358901 64.56772099 4.01392288 63.86941927 0.375 62.9375 C-0.86765625 62.60363281 -2.1103125 62.26976562 -3.390625 61.92578125 C-5.5447746 61.37325587 -7.70051319 60.82678567 -9.859375 60.29296875 C-18.81054517 57.91618288 -25.14269787 53.1772737 -30.078125 45.2734375 C-32.34180949 39.69096135 -31.85817322 32.2682525 -30.34765625 26.515625 C-27.38642345 19.95770172 -21.38619491 15.10679752 -15 12 C-13.68 12 -12.36 12 -11 12 C-11.12375 10.6696875 -11.12375 10.6696875 -11.25 9.3125 C-10.94530814 5.27533282 -9.77959995 3.86135289 -7 1 C-4.35955695 -0.32022153 -2.93650531 -0.40974493 0 0 Z " fill="#272422" transform="translate(127,35)"/>
<path d="M0 0 C6.6 0 13.2 0 20 0 C20 54.45 20 108.9 20 165 C13.4 165 6.8 165 0 165 C0 110.55 0 56.1 0 0 Z " fill="#86C7FE" transform="translate(436,88)"/>
<path d="M0 0 C6.93 0 13.86 0 21 0 C21 38.61 21 77.22 21 117 C14.07 117 7.14 117 0 117 C0 78.39 0 39.78 0 0 Z " fill="#61F1BC" transform="translate(298,136)"/>
<path d="M0 0 C6.93 0 13.86 0 21 0 C21 30.36 21 60.72 21 92 C14.07 92 7.14 92 0 92 C0 61.64 0 31.28 0 0 Z " fill="#FCDD74" transform="translate(367,161)"/>
<path d="M0 0 C7.26 0 14.52 0 22 0 C22 18.15 22 36.3 22 55 C14.74 55 7.48 55 0 55 C0 36.85 0 18.7 0 0 Z " fill="#FE646F" transform="translate(229,198)"/>
<path d="M0 0 C4.93060319 4.317658 7.69658853 9.34796989 10.8125 15.0625 C11.96522273 17.13983542 13.11891188 19.21663478 14.2734375 21.29296875 C14.87897461 22.38657715 15.48451172 23.48018555 16.10839844 24.60693359 C19.00286748 29.79889677 21.96347822 34.95270965 24.92318726 40.1076355 C30.91980976 50.55630413 36.84063612 61.04555565 42.71069336 71.56591797 C46.75886243 78.81061245 50.85813623 86.0248902 54.98388672 93.22555542 C55.99180143 94.98568279 56.99816394 96.74668716 58.00390625 98.50805664 C58.33350342 99.08526962 58.66310059 99.6624826 59.00268555 100.25718689 C59.66696377 101.42061897 60.33118913 102.58408124 60.99536133 103.74757385 C63.02257326 107.29652907 65.06001982 110.83939701 67.10351562 114.3789978 C68.74405012 117.2270445 70.37076174 120.0829807 72 122.9375 C72.60585937 123.97970703 73.21171875 125.02191406 73.8359375 126.09570312 C74.38507813 127.06314453 74.93421875 128.03058594 75.5 129.02734375 C76.22703125 130.29179321 76.22703125 130.29179321 76.96875 131.58178711 C78.10523078 134.24675921 78.20463388 136.13288752 78 139 C75.71917418 136.08986418 73.85697812 133.11197239 72.06640625 129.87890625 C71.50630859 128.87214844 70.94621094 127.86539063 70.36914062 126.828125 C69.77294922 125.75046875 69.17675781 124.6728125 68.5625 123.5625 C67.29373127 121.28212766 66.02418836 119.0021859 64.75390625 116.72265625 C64.11984863 115.5845752 63.48579102 114.44649414 62.83251953 113.27392578 C60.252614 108.66474204 57.63045827 104.08046426 55 99.5 C50.6173098 91.86054922 46.29486427 84.18915468 42 76.5 C36.28685878 66.27529709 30.50598132 56.09191822 24.67919922 45.93164062 C22.76319693 42.58657585 20.85192286 39.23882438 18.94140625 35.890625 C18.2296646 34.64363056 17.51791327 33.39664164 16.80615234 32.1496582 C15.76353244 30.32300315 14.72102665 28.49628375 13.67901611 26.66928101 C12.70712238 24.96541118 11.73442609 23.26199923 10.76171875 21.55859375 C9.83238525 19.92833252 9.83238525 19.92833252 8.88427734 18.26513672 C7.59563294 16.03213202 6.28768338 13.81018703 4.96337891 11.59814453 C4.32190918 10.5254834 3.68043945 9.45282227 3.01953125 8.34765625 C2.43921143 7.38996338 1.8588916 6.43227051 1.26098633 5.44555664 C0 3 0 3 0 0 Z " fill="#AAAAAE" transform="translate(56,331)"/>
<path d="M0 0 C10.83172816 9.51879142 17.15858514 24.1126017 18.2578125 38.3359375 C18.80886297 55.85934252 13.64866454 72.69294925 2 86 C1 83 1 83 1.85546875 81.08984375 C2.29503906 80.37957031 2.73460937 79.66929688 3.1875 78.9375 C12.74016855 62.59182271 15.00802819 44.45280304 11 26 C8.6515904 18.21316816 5.21570549 11.16203236 1.13671875 4.14453125 C0 2 0 2 0 0 Z " fill="#E9AF29" transform="translate(170,45)"/>
<path d="M0 0 C4.56589388 0.51689365 6.30570478 1.9386626 9.3125 5.375 C10.12363355 8.22834922 10.07386134 10.51412707 9.3125 13.375 C7.25 16.375 7.25 16.375 4.3125 18.375 C0.8125 19 0.8125 19 -2.6875 18.375 C-6.2532187 15.81698441 -7.46938251 14.05358776 -8.8125 9.875 C-8.6875 6.375 -8.6875 6.375 -6.3125 3.5 C-5.44625 2.79875 -4.58 2.0975 -3.6875 1.375 C-2.6875 0.375 -2.6875 0.375 0 0 Z " fill="#2A2828" transform="translate(49.6875,348.625)"/>
<path d="M0 0 C7.26 0 14.52 0 22 0 C22 18.15 22 36.3 22 55 C21.01 55 20.02 55 19 55 C19 37.18 19 19.36 19 1 C13.06 1 7.12 1 1 1 C1 18.82 1 36.64 1 55 C0.67 55 0.34 55 0 55 C0 36.85 0 18.7 0 0 Z " fill="#C4454F" transform="translate(229,198)"/>
</svg>
